/* XPM */
static char *cGVubnk_[] = {
/* columns rows colors chars-per-pixel */
"50 50 247 2 ",
"   c #060000",
".  c #070101",
"X  c #060200",
"o  c #070200",
"O  c #070304",
"+  c #040404",
"@  c gray2",
"#  c #060405",
"$  c #080000",
"%  c #0B0100",
"&  c #080300",
"*  c #0B0102",
"=  c #0D0101",
"-  c #0F0100",
";  c #0C0201",
":  c #0D0301",
">  c #0C0002",
",  c #0D0302",
"<  c #0F0303",
"1  c #0D0105",
"2  c #0A0406",
"3  c #0E0604",
"4  c #0F0A07",
"5  c #080108",
"6  c #0D0208",
"7  c #0F040A",
"8  c #100000",
"9  c #100202",
"0  c #140000",
"q  c #170000",
"w  c #130401",
"e  c #100503",
"r  c #120403",
"t  c #130504",
"y  c #110604",
"u  c #140404",
"i  c #140606",
"p  c #130804",
"a  c #150A06",
"s  c #160B07",
"d  c #150C07",
"f  c #170C06",
"g  c #1A0B06",
"h  c #1D0A06",
"j  c #180E05",
"k  c #180D07",
"l  c #120A08",
"z  c #130D0D",
"x  c #190F0D",
"c  c #101008",
"v  c #1B120D",
"b  c #1A100E",
"n  c #1F120C",
"m  c #1E100F",
"M  c #171113",
"N  c #210D06",
"B  c #240D07",
"V  c #201408",
"C  c #20130D",
"Z  c #24130C",
"A  c #2A1708",
"S  c #2B1B0C",
"D  c #2A180E",
"F  c #2E1E0E",
"G  c #381F09",
"H  c #3C1F0D",
"J  c #2F1713",
"K  c #231816",
"L  c #281A11",
"P  c #2F1812",
"I  c #281B15",
"U  c #2C1A16",
"Y  c #291F15",
"T  c #2A1D17",
"R  c #2E1D15",
"E  c #2D1F14",
"W  c #2F1E17",
"Q  c #231B18",
"!  c #251A18",
"~  c #2E1A19",
"^  c #2B1D1C",
"/  c #321C11",
"(  c #311D12",
")  c #301C13",
"_  c #331D12",
"`  c #341E11",
"'  c #361E12",
"]  c #311814",
"[  c #331A16",
"{  c #341B16",
"}  c #311D14",
"|  c #301E14",
" . c #341D17",
".. c #3A1D17",
"X. c #331E19",
"o. c #371F1B",
"O. c #381F1B",
"+. c #362209",
"@. c #3D2A09",
"#. c #39280C",
"$. c #2A2112",
"%. c #2F2118",
"&. c #322014",
"*. c #3D2910",
"=. c #332019",
"-. c #322119",
";. c #35211A",
":. c #33241D",
">. c #3A231B",
",. c #3A2718",
"<. c #3F241B",
"1. c #3D201C",
"2. c #3F221C",
"3. c #3E231C",
"4. c #3E221E",
"5. c #3F231F",
"6. c #3A281A",
"7. c #3A281C",
"8. c #3F291E",
"9. c #3D2D1E",
"0. c #352C27",
"q. c #3F2820",
"w. c #3F3126",
"e. c #4D2A17",
"r. c #41261F",
"t. c #40281E",
"y. c #45291E",
"u. c #402D1E",
"i. c #413014",
"p. c #443015",
"a. c #41311A",
"s. c #453119",
"d. c #402720",
"f. c #432723",
"g. c #452820",
"h. c #442920",
"j. c #462820",
"k. c #462921",
"l. c #452822",
"z. c #442922",
"x. c #472A22",
"c. c #472A24",
"v. c #462A26",
"b. c #432C24",
"n. c #482A20",
"m. c #482A22",
"M. c #482B23",
"N. c #492B23",
"B. c #482924",
"V. c #492A25",
"C. c #482B25",
"Z. c #482B27",
"A. c #4A2B26",
"S. c #4C2B26",
"D. c #4A2C24",
"F. c #492C26",
"G. c #482D26",
"H. c #4B2C27",
"J. c #4A2D27",
"K. c #4A2B28",
"L. c #482C28",
"P. c #4A2D29",
"I. c #403021",
"U. c #423427",
"Y. c #4A3524",
"T. c #4E3129",
"R. c #4E3B2C",
"E. c #4A3D2C",
"W. c #4F3E2C",
"Q. c #533F27",
"!. c #593F2E",
"~. c #463931",
"^. c #423C30",
"/. c #493A33",
"(. c #493D31",
"). c #4F3E34",
"_. c #4C3F36",
"`. c #583E31",
"'. c #4E4026",
"]. c #5B4120",
"[. c #584026",
"{. c #5B452D",
"}. c #4E4232",
"|. c #574134",
" X c #514535",
".X c #5B4931",
"XX c #5E4A31",
"oX c #51473B",
"OX c #51443C",
"+X c #5F4838",
"@X c #654921",
"#X c #6A4D25",
"$X c #684E2B",
"%X c #6C532B",
"&X c #6C572C",
"*X c #755323",
"=X c #75592A",
"-X c #624D32",
";X c #675736",
":X c #6E5433",
">X c #765931",
",X c #705834",
"<X c #755934",
"1X c #765A35",
"2X c #745E37",
"3X c #7B6333",
"4X c #7A6337",
"5X c #7C6039",
"6X c #7F633C",
"7X c #6C5B4B",
"8X c #7D6B55",
"9X c #82581C",
"0X c #825F1F",
"qX c #886525",
"wX c #896B2F",
"eX c #936A2C",
"rX c #9B6F28",
"tX c #957022",
"yX c #977126",
"uX c #987124",
"iX c #93702C",
"pX c #9B732B",
"aX c #98732C",
"sX c #9A712F",
"dX c #9C762F",
"fX c #816037",
"gX c #886731",
"hX c #866832",
"jX c #826837",
"kX c #8A6A31",
"lX c #8A6C36",
"zX c #80643D",
"xX c #856B3A",
"cX c #976F31",
"vX c #977130",
"bX c #957137",
"nX c #927436",
"mX c #987732",
"MX c #997237",
"NX c #93723F",
"BX c #A47629",
"VX c #836A42",
"CX c #856E4C",
"ZX c #9D6E44",
"AX c #83734F",
"SX c #997541",
"DX c #90754A",
/* pixels */
"A.A.A.A.A.A.A.A.A.A.A.A.A.A.A.A.A.A.A.A.A.A.A.A.A.A.A.A.A.A.A.A.A.A.A.A.A.A.A.A.A.A.A.A.A.A.A.A.A.A.",
"A.A.A.A.A.A.A.A.A.A.A.A.A.A.A.A.A.A.A.A.A.A.A.A.A.A.A.A.A.A.A.A.A.A.A.A.A.A.A.A.A.A.A.A.A.A.A.A.A.A.",
"A.A.A.A.A.A.A.A.A.A.A.A.A.A.A.A.A.A.A.A.A.A.A.A.A.A.A.A.A.A.A.A.A.A.A.A.A.A.A.A.A.A.A.A.A.A.A.A.A.A.",
"A.A.A.A.A.A.A.A.A.A.A.A.A.A.A.A.A.A.A.A.A.A.A.A.A.A.A.A.A.A.A.A.A.A.A.A.A.A.A.A.A.A.A.A.A.A.A.A.A.A.",
"A.A.A.A.A.A.A.A.A.A.A.A.A.A.A.A.A.A.A.A.A.A.A.A.A.A.A.A.A.A.A.A.A.A.A.A.A.A.A.A.A.A.A.A.A.A.A.A.A.A.",
"A.A.A.A.A.A.A.A.A.A.A.A.A.A.A.A.A.A.A.A.A.A.A.A.A.A.A.A.A.A.A.A.A.A.A.A.A.A.A.A.A.A.A.A.A.A.A.A.A.A.",
"A.A.A.A.A.A.A.A.A.A.A.A.A.A.A.A.A.A.A.A.A.A.A.A.A.A.A.A.A.A.A.A.A.A.A.A.A.A.A.A.A.A.A.A.A.A.A.A.A.A.",
"A.A.A.A.A.A.A.A.A.A.A.A.A.A.A.A.A.A.A.A.A.A.A.A.A.A.A.A.A.A.A.A.A.A.A.A.A.A.A.A.A.A.A.A.A.A.A.A.A.A.",
"A.A.A.A.A.A.A.A.A.A.A.A.A.A.A.A.A.A.A.A.A.A.A.A.A.A.A.A.A.A.A.A.A.A.A.A.A.A.A.A.A.A.A.A.A.A.A.A.A.A.",
"A.A.A.A.A.A.A.A.A.A.A.A.A.A.A.A.A.A.A.A.A.A.A.A.A.A.A.A.A.A.A.A.A.A.A.A.A.A.A.A.A.A.A.A.A.A.A.A.A.A.",
"A.A.A.A.A.A.A.A.A.A.A.A.A.A.A.A.A.A.A.A.A.A.A.A.A.A.A.A.A.A.A.A.A.A.A.A.A.A.A.A.A.A.A.A.A.A.A.A.A.A.",
"A.A.A.A.A.A.A.A.A.A.A.A.A.A.A.A.A.A.A.A.A.A.A.A.A.A.A.A.A.A.A.A.A.A.A.A.A.A.A.A.A.A.A.A.A.A.A.A.A.A.",
"A.A.A.A.A.A.A.A.A.A.A.A.A.A.A.A.A.A.A.A.A.A.A.A.A.A.A.A.A.A.A.A.A.A.A.A.A.A.A.A.A.A.A.A.A.A.A.A.A.A.",
"A.A.A.A.A.A.A.A.A.A.A.A.A.A.A.A.A.A.A.A.A.A.A.A.A.A.A.A.A.A.A.A.A.A.A.A.A.A.A.A.A.A.A.A.A.A.A.A.A.A.",
"A.A.A.A.A.A.A.A.A.A.A.A.A.A.A.A.A.A.A.A.A.A.A.A.A.A.A.A.A.A.A.A.A.A.A.A.A.A.A.A.A.A.A.A.A.A.A.A.A.A.",
"A.A.A.A.A.A.A.A.A.A.A.A.A.A.A.A.A.A.A.A.A.A.A.A.A.A.A.A.A.A.A.A.A.A.A.A.A.A.A.A.A.A.A.A.A.A.A.A.A.A.",
"A.A.A.A.A.A.A.A.A.A.A.A.N.A.S.L.A.D.A.A.D.K.A.A.A.A.A.A.A.A.A.A.K.A.A.S.A.A.A.A.A.A.A.A.A.A.A.A.A.A.",
"A.A.A.A.A.A.A.A.A.A.A.P.A.A.A.A.A.A.A.D.L.c.d.2.O.q.r.k.B.A.A.A.A.S.A.L.A.A.A.A.A.A.A.A.A.A.A.A.A.A.",
"A.A.A.A.A.A.A.A.A.A.A.A.A.A.A.S.A.A.S.A.D.f.9 9 9 9 0 0 d.D.c.P.A.A.S.H.D.A.K.A.A.A.A.A.A.A.A.A.A.A.",
"A.A.A.A.A.A.A.A.A.A.A.K.D.A.A.A.c.A.X.c l m S $.% E } } n M z ;.A.A.A.D.A.A.A.A.A.A.A.A.A.A.A.A.A.A.",
"A.A.A.A.A.A.A.A.A.A.A.A.A.A.A.K.A.o.= @ 1 6.4XAX= DXnX3X9.6 O = o.D.K.S.A.S.A.A.A.A.A.A.A.A.A.A.A.A.",
"A.A.A.A.A.A.A.A.A.A.A.A.A.A.A.c.o.n a.%X>X<X:X8.B e.9XeX5X<X&XI.C 2.k.L.A.A.A.A.A.A.A.A.A.A.A.A.A.A.",
"A.A.A.A.A.A.A.A.A.A.A.S.A.A.K.{ r '.gXrXvX6XW 7X8XCXNXsXdXsXbXzX Xi ] S.A.A.A.A.A.A.A.A.A.A.A.A.A.A.",
"A.A.A.A.A.A.A.A.A.A.A.A.A.A.K.J = Q.qXyXuXkX[.w.(._.`.ZXBXpXSXVX}.= ] A.A.S.A.A.A.A.A.A.A.A.A.A.A.A.",
"A.A.A.A.A.A.A.A.A.A.A.A.L.P.A.~ % N @X0XsXsXlX-X9 ;X5XMXtXmXxXXXd = ] D.K.A.A.A.A.A.A.A.A.A.A.A.A.A.",
"A.A.A.A.A.A.A.A.A.A.A.A.S.S.D.T 7 ^ Y.].#X*XkX,XQ.2XjXhX=X$X{.U.K = ] D.A.A.A.A.A.A.A.A.A.A.A.A.A.A.",
"A.A.A.A.A.A.A.A.S.A.A.A.S.S.A.X.b d :.E..X!.+.' &._ G +.|.+XR.0.b h ..A.A.A.A.D.A.A.A.A.A.A.A.A.A.A.",
"A.A.A.A.A.A.A.A.A.A.A.L.D.L.A.b.L = Q ^.oX(.A #.@.*.,.D /.OX~.! 9 J j.S.A.A.A.P.A.A.A.A.A.A.A.A.A.A.",
"A.A.A.A.A.A.A.A.A.A.A.A.K.D.A.S.q.$.4 2 5 p E p.s.p.9.U r @ @ a E j.A.K.A.A.A.A.A.A.A.A.A.A.A.A.A.A.",
"A.A.A.A.A.A.A.A.A.A.A.A.A.A.A.A.k.7.n p r = %   X %     & 3 r Z <.A.A.S.A.A.A.A.A.A.A.A.A.A.A.A.A.A.",
"A.A.A.A.A.A.A.A.A.A.A.A.A.A.D.A.S.c.8.,.-.%.k k k k a a I -.;.z.A.A.A.A.A.A.A.A.A.A.A.A.A.A.A.A.A.A.",
"A.A.A.A.A.A.A.A.A.A.A.A.A.A.A.K.A.A.A.K.y.k. ._ } } _ _ q.c.c.D.A.D.A.A.A.D.A.A.A.A.A.A.A.A.A.A.A.A.",
"A.A.A.A.A.A.A.A.A.A.A.A.A.A.A.A.A.A.A.A.A.A.A.A.c.A.c.b.A.A.A.A.A.A.A.A.A.A.A.A.A.A.A.A.A.A.A.A.A.A.",
"A.A.A.A.A.A.A.A.A.A.A.A.A.A.A.A.A.A.A.A.A.A.A.A.A.A.A.S.A.A.A.A.A.A.A.A.A.A.A.A.A.A.A.A.A.A.A.A.A.A.",
"A.A.A.A.A.A.A.A.A.A.A.A.A.A.A.A.A.A.A.A.A.A.A.A.A.A.A.A.A.A.A.A.A.A.A.A.A.A.A.A.A.A.A.A.A.A.A.A.A.A.",
"A.A.A.A.A.A.A.A.A.A.A.A.A.A.A.A.A.A.A.A.A.A.A.A.A.A.A.A.A.A.A.A.A.A.A.A.A.A.A.A.A.A.A.A.A.A.A.A.A.A.",
"A.A.A.A.A.A.A.A.A.A.A.A.A.A.A.A.A.A.A.A.A.A.A.A.A.A.A.A.A.A.A.A.A.A.A.A.A.A.A.A.A.A.A.A.A.A.A.A.A.A.",
"A.A.A.A.A.A.A.A.A.A.A.A.A.A.A.A.A.A.A.A.A.A.A.A.A.A.A.A.A.A.A.A.A.A.A.A.A.A.A.A.A.A.A.A.A.A.A.A.A.A.",
"A.A.A.A.A.A.A.A.A.A.A.A.A.A.A.A.A.A.A.A.A.A.A.A.A.A.A.A.A.A.A.A.A.A.A.A.A.A.A.A.A.A.A.A.A.A.A.A.A.A.",
"A.A.A.A.A.A.A.A.A.A.A.A.A.A.A.A.A.A.A.A.A.A.A.A.A.A.A.A.A.A.A.A.A.A.A.A.A.A.A.A.A.A.A.A.A.A.A.A.A.A.",
"A.A.A.A.A.A.A.A.A.A.A.A.A.A.A.A.A.A.A.A.A.A.A.A.A.A.A.A.A.A.A.A.A.A.A.A.A.A.A.A.A.A.A.A.A.A.A.A.A.A.",
"A.A.A.A.A.A.A.A.A.A.A.A.A.A.A.A.A.A.A.A.A.A.A.A.A.A.A.A.A.A.A.A.A.A.A.A.A.A.A.A.A.A.A.A.A.A.A.A.A.A.",
"A.A.A.A.A.A.A.A.A.A.A.A.A.A.A.A.A.A.A.A.A.A.A.A.A.A.A.A.A.A.A.A.A.A.A.A.A.A.A.A.A.A.A.A.A.A.A.A.A.A.",
"A.A.A.A.A.A.A.A.A.A.A.A.A.A.A.A.A.A.A.A.A.A.A.A.A.A.A.A.A.A.A.A.A.A.A.A.A.A.A.A.A.A.A.A.A.A.A.A.A.A.",
"A.A.A.A.A.A.A.A.A.A.A.A.A.A.A.A.A.A.A.A.A.A.A.A.A.A.A.A.A.A.A.A.A.A.A.A.A.A.A.A.A.A.A.A.A.A.A.A.A.A.",
"A.A.A.A.A.A.A.A.A.A.A.A.A.A.A.A.A.A.A.A.A.A.A.A.A.A.A.A.A.A.A.A.A.A.A.A.A.A.A.A.A.A.A.A.A.A.A.A.A.A.",
"A.A.A.A.A.A.A.A.A.A.A.A.A.A.A.A.A.A.A.A.A.A.A.A.A.A.A.A.A.A.A.A.A.A.A.A.A.A.A.A.A.A.A.A.A.A.A.A.A.A.",
"A.A.A.A.A.A.A.A.A.A.A.A.A.A.A.A.A.A.A.A.A.A.A.A.A.A.A.A.A.A.A.A.A.A.A.A.A.A.A.A.A.A.A.A.A.A.A.A.A.A.",
"D.A.A.N.A.A.A.A.A.A.A.A.A.A.A.A.A.A.A.A.A.A.A.A.A.A.A.A.A.A.A.A.A.A.A.A.A.A.A.A.A.A.A.A.A.A.A.A.A.A.",
"N.k.N.k.N.A.A.A.A.A.A.A.A.A.A.A.A.A.A.A.A.A.A.A.A.A.A.A.A.A.A.A.A.A.A.A.A.A.A.A.A.A.A.A.A.A.A.A.A.A."
};
