/* XPM */
static char *ZW5lbWllcy4_[] = {
/* columns rows colors chars-per-pixel */
"50 50 160 2 ",
"   c #060000",
".  c #0A0000",
"X  c #120301",
"o  c #160905",
"O  c #190B06",
"+  c #170C0B",
"@  c #1A0C0B",
"#  c #1E1312",
"$  c #23120E",
"%  c #261510",
"&  c #291515",
"*  c #2B1A16",
"=  c #271C1A",
"-  c #2A1D1C",
";  c #311D18",
":  c #2D201D",
">  c #34251F",
",  c #3E261C",
"<  c #352424",
"1  c #382625",
"2  c #342A26",
"3  c #3D2B25",
"4  c #362C2A",
"5  c #3C2D2B",
"6  c #3C302F",
"7  c #3E3030",
"8  c #41271D",
"9  c #452C26",
"0  c #4A2B25",
"q  c #432D2A",
"w  c #492C29",
"e  c #45332D",
"r  c #4B332B",
"t  c #433433",
"y  c #4A3535",
"u  c #4A3A35",
"i  c #463F3F",
"p  c #4C3C3A",
"a  c #543D34",
"s  c #513D3C",
"d  c #46403D",
"f  c #49403E",
"g  c #574034",
"h  c #54423C",
"j  c #544442",
"k  c #594444",
"l  c #5D4946",
"z  c #5C4C4C",
"x  c #5C514E",
"c  c #5F4F50",
"v  c #5C5251",
"b  c #634D4C",
"n  c #6A4F4F",
"m  c #64524F",
"M  c #655553",
"N  c #6B5554",
"B  c #675956",
"V  c #6B5956",
"C  c #6C5759",
"Z  c #675959",
"A  c #6C5C5B",
"S  c #705655",
"D  c #725B54",
"F  c #735C5C",
"G  c #70635E",
"H  c #78655E",
"J  c #6B6260",
"K  c #766364",
"L  c #7A6564",
"P  c #756B67",
"I  c #7F6A67",
"U  c #766D6C",
"Y  c #826667",
"T  c #8C7C7A",
"R  c #927777",
"E  c #947D7D",
"W  c #94817E",
"Q  c #937F81",
"!  c #8E8382",
"~  c #938181",
"^  c #9C8583",
"/  c #948986",
"(  c #9A8887",
")  c #9C8789",
"_  c #968989",
"`  c #9B8889",
"'  c #A18686",
"]  c #A38C8C",
"[  c #A4928E",
"{  c #A49191",
"}  c #AA9394",
"|  c #AE9996",
" . c #AE9798",
".. c #AC9A9A",
"X. c #B29794",
"o. c #B19A96",
"O. c #B29B9A",
"+. c #B5A19E",
"@. c #BFA89D",
"#. c #B4A5A5",
"$. c #B9A2A3",
"%. c #BAA5A5",
"&. c #BBA6A6",
"*. c #BDA7A5",
"=. c #BEA5A6",
"-. c #BFA6A7",
";. c #BCA5A4",
":. c #B3A8A7",
">. c #BCA8A5",
",. c #BCA8A5",
"<. c #BBA9A9",
"1. c #BDA9A9",
"2. c #BFA8A9",
"3. c #BEAAA8",
"4. c #BFABAB",
"5. c #BEAAAA",
"6. c #BEACAB",
"7. c #BDABAB",
"8. c #BFB2B2",
"9. c #BBB2B0",
"0. c #C0A7A7",
"q. c #C1A9AA",
"w. c #C1AAAB",
"e. c #C2ABAC",
"r. c #C2ABAE",
"t. c #C3AFAC",
"y. c #C1ACAE",
"u. c #C3AEAE",
"i. c #C4AEAC",
"p. c #C6ADAE",
"a. c #C4AEAE",
"s. c #C7AEAE",
"d. c #C6AFAE",
"f. c #C4ADAD",
"g. c #C8AFAF",
"h. c #C9AFAF",
"j. c #C5B1AF",
"k. c #C7B0AF",
"l. c #C7B0AF",
"z. c #CAB2A8",
"x. c #C3AEB0",
"c. c #C4ADB0",
"v. c #C4AFB0",
"b. c #C7AEB0",
"n. c #C6AFB0",
"m. c #C4AFB2",
"M. c #C7AFB3",
"N. c #C5AFB1",
"B. c #C8AFB1",
"V. c #C8AFB1",
"C. c #C2B0B2",
"Z. c #C5B1B1",
"A. c #C7B0B1",
"S. c #C5B0B3",
"D. c #C5B3B2",
"F. c #C3B3B4",
"G. c #C2B4B4",
"H. c #C5B1B1",
"J. c #C8B1B2",
"K. c #C8B1B0",
/* pixels */
"0 0 0 0 0 0 0 0 0 0 0 0 8 0 0 0 0 0 0 0 0 0 0 0 0 0 0 0 0 0 0 0 9 0 0 0 0 0 0 0 0 0 0 0 0 0 0 0 0 0 ",
"0 0 0 0 0 0 0 0 0 0 0 0 0 0 0 0 0 0 0 0 0 0 0 0 0 0 0 0 0 0 9 0 0 0 0 0 0 0 0 0 0 0 0 0 0 0 0 0 0 0 ",
"0 0 0 0 0 0 0 0 0 0 0 0 0 0 0 0 0 0 0 0 0 0 0 0 0 w 0 0 0 0 0 0 0 0 0 0 0 0 0 0 0 0 0 0 0 0 0 0 0 0 ",
"0 0 0 0 0 0 0 0 0 0 0 0 0 0 0 0 0 0 0 0 9 w 9 w w 0 9 9 9 w 0 w 0 0 0 0 0 0 0 0 0 0 0 0 0 0 0 0 0 0 ",
"0 0 0 0 0 0 0 0 0 0 0 0 9 0 9 0 0 0 w w w q w q w q q q q q w w 9 w 0 0 0 0 0 0 0 0 0 0 0 0 0 0 0 0 ",
"0 0 0 0 0 0 0 0 0 0 0 0 0 0 9 9 w w q q X     3 5 X . . . . q 9 w q 9 w 0 0 0 0 0 0 0 0 0 0 0 0 0 0 ",
"0 0 0 0 0 0 0 0 0 0 0 0 9 0 0 9 q A 5 q . . X O 5   . X X X 7 5 Z 6 q w 0 0 0 0 0 0 0 0 0 0 0 0 0 0 ",
"0 0 0 0 0 0 0 0 9 0 0 9 0 9 9 M M i . . C q p M . p C p q C     j Z M w w 0 0 0 0 0 0 0 0 0 0 0 0 0 ",
"0 0 0 0 0 0 0 0 0 0 0 0 9 w 5 .   - t j ( 7.O.E & F ~ O.q.) k t :     e w 0 0 0 0 0 0 0 0 0 0 0 0 0 ",
"0 0 0 0 0 0 0 0 0 0 0 0 w q       Z ) D.D.p.j.,.n Q -.h.V.J.C.( V     . q 9 0 0 0 0 0 0 0 0 0 0 0 0 ",
"0 0 0 0 0 0 0 0 0 0 r 9 Z     ~ e.V.p.C.D.u.p.q.E V.V.p.p.k.k.t.k.6.T     N w 9 0 0 0 0 0 0 0 0 0 0 ",
"0 0 0 0 0 0 0 0 0 9 9 h - - c C ^ O.p.p.u.u.m.-.S h.p.m.k.k.p.k.k.p.7.e 5 - p 9 0 0 0 0 0 0 0 w 0 0 ",
"0 0 0 0 0 0 0 0 0 w N - j K ] ]  .=.u.m.D.p.D.-.n  .e.m.x.p.k.p.p.p.k.| L h - B 0 0 0 0 0 0 0 1 0 0 ",
"0 0 0 0 0 0 0 0 9 e   5 L ] m.S.m.p.p.m.p.p.q.$.b q $.m.D.p.k.k.h.h.i.i.] K . . 9 0 0 w 0 0 0 0 0 0 ",
"0 0 0 0 0 0 0 0 9 q   6 O.m.D.C.F.S.x.m.V.V.| e   . q o.D.p.p.k.m.p.h.h.h.K . . q 9 0 0 0 0 0 0 0 0 ",
"0 0 0 0 0 0 0 0 9   . #.O.q         5 Q J.V.V .   M -.p.h.m.u.k.m.p.p.E S M z     9 9 0 0 0 0 0 0 0 ",
"0 0 0 0 0 0 0 9 5     #.W 3 6 . . . @ 7 k Q b l . - s C F ' V.m.x.m.V.q.-.} s     q 9 9 0 0 0 0 0 0 ",
"0 0 0 0 0 w w s x   u [ g $ u . . X . . C { q y .   N q ] O.p.m.u.D.p.D.C.&.[ u   M p 9 w 0 0 0 0 0 ",
"0 0 0 0 0 0 q B     A I V % h . . .     ) e.~ 3 . - Q O.k.k.m.q.q.&.:.:.#.7.O.A   . N 9 9 w w w 0 0 ",
"0 0 0 0 0 w w M .   W W A $ h   . . .   D.m. .e . M %.c.i.p.V.( A         V W ~     M q 9 0 w w 0 0 ",
"0 0 0 0 0 0 w q 7     z u   . 6 @ . 5 ~ m.M.l.$.  ! q.V.p.l.k.k . . . . 1 ; 5 !     M 9 w 9 0 0 0 0 ",
"0 0 0 0 0 0 q A 4   #.&.h > . O X * b e.m.x.O.T . <.p.m.p.k.( 6 .     . y 9 @ 7 . j e q 0 0 0 0 0 0 ",
"0 0 0 0 0 9 9 B     ..i.o.9 , 8 9 H ) J.m.O.E m . D.O.-.i.O.A : . .   = 5 - $ p   v p w 9 0 w 0 0 0 ",
"0 0 0 0 0 9 e N     e O.@.+.g g h ^ k.l.V.E N :   7.E } ;.) k : @ . . 1 O X < J . . Z w w 0 0 w 0 0 ",
"0 0 0 0 0 0 0 n .     . D w 8 8 a ^ p.J.D.h h A   / 5 C ) J.D.F 5 . X . X * s ~ . . C w 0 0 0 0 0 0 ",
"0 0 0 0 0 0 0 0 6     #.k.;.a z.D ^ D.m.Q e . .     . . j D.m.m.~ 9 h h h ) &.. . q q w 0 0 0 0 0 0 ",
"0 0 0 0 0 0 0 0 3     W O.;.a z.D ^ p.C.5 @   .   . . . k D.k.p.q.o.a g r L T   . q w w 0 0 0 0 0 0 ",
"0 0 0 0 0 0 0 w e B   v T [ a z.D ' p.D.  7 J     U P k j C.D.k.D.;.r 9 ; j M   M q w 0 0 0 0 0 0 0 ",
"0 0 0 0 0 0 0 0 0 r 6 + M M g @.D W z.D.1 $.6     8./ G m D.p.p.p.=.3 q @ . @ 1 q q w w 0 0 0 0 0 0 ",
"0 0 0 0 0 0 0 0 0 0 5 3   X 3 g g ^ k.k.~ 1           V ^ m.p.p.m.%.s E 7 . 5 5 q 9 0 0 0 0 0 0 0 0 ",
"0 0 0 0 0 0 0 0 8 0 9 q B     5 q ~ k.l.J.( E h . ~ E O.p.h.l.l.m.=.5 .   N q 9 0 0 0 0 0 8 0 0 0 0 ",
"0 0 0 0 0 0 0 0 0 9 9 9 q k   + @ u A ^ ' ~ S N   A Y E ' ' ' ( A j o   j q w 0 0 0 0 0 0 0 0 0 0 0 ",
"0 0 0 0 0 0 0 0 0 0 0 0 0 0 N .   % 5 F E S N y   p L h R Y C C j . . N e 0 0 0 0 0 0 0 0 0 0 0 0 0 ",
"0 0 0 0 0 0 0 0 0 0 0 0 0 0 e q @       j N y .     z L s b . X   @ 5 q 0 8 0 8 0 0 0 0 0 0 0 0 0 0 ",
"0 0 0 0 0 0 0 0 0 0 0 0 0 w 9 5 6                         .     . 5 q q 9 0 0 0 0 0 0 0 0 0 0 0 0 0 ",
"0 0 0 0 0 0 0 0 0 0 0 0 0 w q .   A ` G.                    F._ Z .   e 9 0 0 0 0 0 0 0 0 0 0 0 0 0 ",
"0 0 0 0 0 0 0 0 0 0 0 0 0 9 6   F { q.l.q e L k . b s q q q m.q.} A   5 9 0 0 0 0 0 0 0 0 0 0 0 0 0 ",
"0 0 0 0 0 0 0 0 0 0 0 0 0 w     q X.q.b E S S u . p N L S E b q.o.w     w 0 8 0 0 0 0 0 0 0 0 0 0 0 ",
"0 0 0 0 0 0 0 0 0 8 0 0 9 w     q o.&.. ' F b $ @   p C F ' . %.o.q     w 0 0 0 0 0 0 0 0 0 0 0 0 0 ",
"0 0 0 0 0 0 0 0 0 0 0 0 0 w     q ..:.  D.z.W h 6   &.D.V.b.  <...6     q 0 0 0 0 0 0 0 0 0 0 0 0 0 ",
"0 0 0 0 0 0 0 0 0 0 0 0 0 0 0 X         D.k.^ p     q | p.D.          q 0 0 0 0 0 0 0 0 0 0 0 0 0 0 ",
"0 0 0 0 0 0 0 0 0 0 0 0 0 0 0 9 4       x ,.^ h     q O.m.F.      4 e w r 0 0 0 0 0 0 0 0 0 0 0 0 0 ",
"0 0 0 0 0 0 0 0 0 0 0 0 9 0 9 9 J i   . * I L e     q ..7.A     f A 0 0 0 0 0 0 0 0 0 0 0 0 0 0 0 0 ",
"0 0 0 0 0 0 0 0 0 0 0 0 0 0 9 9 q A 5 . . u y < .   A [ ..    2 J q r 0 0 0 0 0 0 0 0 0 0 0 0 0 0 0 ",
"0 0 0 0 0 0 0 0 8 9 0 0 0 0 0 9 w w 5   .       .         X . 5 9 9 w 9 0 0 0 0 0 0 0 0 0 0 0 0 0 0 ",
"0 0 0 0 0 0 0 0 0 0 9 9 0 0 0 0 0 0 w q       4 q e 4   . o w 9 9 0 w w 0 0 0 0 0 0 0 0 0 0 0 0 0 0 ",
"0 0 0 0 0 0 0 0 0 0 0 0 0 9 0 0 0 0 w w w w 9 9 9 9 9 q 0 0 0 0 9 0 0 0 0 0 0 0 0 0 0 0 0 0 0 0 0 0 ",
"0 0 0 0 0 0 0 0 0 0 0 0 0 0 0 9 0 0 0 0 0 0 0 9 0 0 0 9 0 0 0 0 0 0 0 0 0 0 0 0 0 0 0 0 0 0 0 0 0 0 ",
"0 0 0 0 0 0 0 0 0 0 0 0 0 0 0 0 0 0 0 0 0 0 0 0 0 0 0 0 0 0 0 0 0 0 0 0 0 0 0 0 0 0 0 0 0 0 0 0 0 0 ",
"0 0 0 0 0 0 0 0 0 0 0 0 0 0 0 0 0 0 0 0 0 0 0 0 0 0 0 0 0 0 0 0 0 0 0 0 0 0 0 0 0 0 0 0 0 0 0 0 0 0 "
};
