/* XPM */
static char *_a67ada2491a46f2dfa9cfa8fda6f76aqfsoaAxCTgdUUvbt[] = {
/* columns rows colors chars-per-pixel */
"50 50 9 1 ",
"  c #080000",
". c #4A2B26",
"X c #B97371",
"o c #67979C",
"O c #CF9C9B",
"+ c #9CC8CC",
"@ c #9CC8CD",
"# c #E3C6C5",
"$ c white",
/* pixels */
"..................................................",
"..................................................",
"..................................................",
"..................................................",
"..................................................",
"..................................................",
"..................................................",
"..................................................",
".....................        .....................",
"...................            ...................",
".................    OOOOOOOO    .................",
"................   O##########O   ................",
"...............  O##############O  ...............",
"..............  O################O  ..............",
".............  O##################O  .............",
".............  ####################  .............",
"............  O####################O  ............",
"............  ######################  ............",
"...........  O###########O    O#####O  ...........",
"...........  O########### $$   #####O  ...........",
"...........  O########### $$   #####O  ...........",
"...........  O###########      ###O    ...........",
"...........  XO##########      ##O     ...........",
"............  O##########O    O## $$$  ...........",
"............  XO##########++++###      ...........",
".............  O##########++++###OOO  ............",
".............  XO#########++++####OX  ............",
"..............  XO########++++###OX  .............",
"...............  XOO######@@+@##OX  ..............",
"................   XO#####@@+oOX   ...............",
".................    XOOOOooo     ................",
"..................              ..................",
".................  O#          ...................",
"................  O###OOOOOOO  ...................",
"................  O## O######   ..................",
"................  O# O######OO  ..................",
".................    O### XOOO  ..................",
"..................   O### XOOO  ..................",
"...................   OOO XOO  ...................",
"....................          ....................",
".....................        .....................",
"..................................................",
"..................................................",
"..................................................",
"..................................................",
"..................................................",
"..................................................",
"..................................................",
"..................................................",
".................................................."
};
