/* XPM */
static char *e75d52f0d34b4d9bc6acfe37afc10805yVRy5vG7ml5datr4[] = {
/* columns rows colors chars-per-pixel */
"50 50 9 1 ",
"  c #080000",
". c #4A2B26",
"X c #B97371",
"o c #67979C",
"O c #CF9C9B",
"+ c #9CC8CC",
"@ c #9CC8CD",
"# c #E3C6C5",
"$ c white",
/* pixels */
"..................................................",
"..................................................",
"..................................................",
"..................................................",
"..................................................",
"..................................................",
"..................................................",
"..................................................",
".....................        .....................",
"...................            ...................",
".................    OOOOOOOO    .................",
"................   O##########O   ................",
"...............  O##############O  ...............",
"..............  O################O  ..............",
".............  O##################O  .............",
".............  ####################  .............",
"............  O####################O  ............",
"............  ######################  ............",
"...........  O#####O    O###########O  ...........",
"...........  O#####   $$ ###########O  ...........",
"...........  O#####   $$ ###########O  ...........",
"...........    O###      ###########O  ...........",
"...........     O##      ##########OX  ...........",
"...........  $$$ ##O    O##########O  ............",
"...........      ###++++##########OX  ............",
"............  OOO###@@@+##########O  .............",
"............  XO####@@@+#########OX  .............",
".............  XO###@@@@########OX  ..............",
"..............  XO##@@@@######OOX  ...............",
"...............   XOo@@@#####OX   ................",
"................     oooOOOOX    .................",
"..................              ..................",
"...................          #O  .................",
"...................  OOOOOOO###O  ................",
"..................   ######O ##O  ................",
"..................  OO######O #O  ................",
"..................  OOOX ###O    .................",
"..................  OOOX ###O   ..................",
"...................  OOX OOO   ...................",
"....................          ....................",
".....................        .....................",
"..................................................",
"..................................................",
"..................................................",
"..................................................",
"..................................................",
"..................................................",
"..................................................",
"..................................................",
".................................................."
};
