/* XPM */
static char *_7dcee88d8ee495fee60f55aaef15a5euwH1eNvSQMfJ66bk[] = {
/* columns rows colors chars-per-pixel */
"50 50 9 1 ",
"  c #080000",
". c #4A2B26",
"X c #B97371",
"o c #67979C",
"O c #68989C",
"+ c #CF9C9B",
"@ c #9CC8CC",
"# c #E3C6C5",
"$ c white",
/* pixels */
"..................................................",
"..................................................",
"..................................................",
"..................................................",
"..................................................",
"..................................................",
"..................................................",
"..................................................",
".....................        .....................",
"...................            ...................",
".................    ++++++++    .................",
"................   +##########+   ................",
"...............  +##############+  ...............",
"..............  +################+  ..............",
".............  +##################+  .............",
".............  ####################  .............",
"............  +####################+  ............",
"............  ######################  ............",
"...........  +######################+  ...........",
"...........  +#+    +########+    +#+  ...........",
"...........  +# $$   ######## $$   #+  ...........",
"...........  ++ $$   ######## $$   ++  ...........",
"...........  X+      ##    ##      +X  ...........",
"............  +      #      #      +  ............",
"............  X+    +# $$$$ #+    +X  ............",
".............  +@@@+##      ##+@@@+  .............",
".............  X@@@############@@@X  .............",
"..............  O@@############@@o  ..............",
"...............  O@+##########+@o  ...............",
"................   o+########+o   ................",
".................    X++++++X    .................",
"..................              ..................",
".................  +#        #+  .................",
"................  +##++++++++##+  ................",
"................  +# +######+ #+  ................",
"................  +# ######## #+  ................",
".................    ##+  +##    .................",
"..................   ###  +##   ..................",
"...................   ##  +#   ...................",
"....................          ....................",
".....................   ..   .....................",
"..................................................",
"..................................................",
"..................................................",
"..................................................",
"..................................................",
"..................................................",
"..................................................",
"..................................................",
".................................................."
};
