/* XPM */
static char *bc2e745c82a84822ba5d7bbe9bc82bacEmE2DZ2Yzm5bdTJM[] = {
/* columns rows colors chars-per-pixel */
"50 50 207 2 ",
"   c #070515",
".  c #090716",
"X  c #040C16",
"o  c #0B0915",
"O  c #070618",
"+  c #080719",
"@  c #060D1C",
"#  c #0A0A1C",
"$  c #120B15",
"%  c #140D1B",
"&  c #1B0F1B",
"*  c #05101C",
"=  c #13111D",
"-  c #1C111C",
";  c #23141C",
":  c #29161C",
">  c #2A191F",
",  c #32191E",
"<  c #391B1E",
"1  c #061521",
"2  c #0B1622",
"3  c #0B1925",
"4  c #0D1D2A",
"5  c #071925",
"6  c #1D1521",
"7  c #121D26",
"8  c #1F1924",
"9  c #121E2A",
"0  c #251722",
"q  c #241A23",
"w  c #2B1C24",
"e  c #2B1E28",
"r  c #331D23",
"t  c #371E27",
"y  c #0E202B",
"u  c #122127",
"i  c #11212A",
"p  c #1E242B",
"a  c #0D2633",
"s  c #152731",
"d  c #152A34",
"f  c #192C36",
"g  c #152E3A",
"h  c #0E323C",
"j  c #143337",
"k  c #1C3536",
"l  c #1E3836",
"z  c #14333C",
"x  c #1D343C",
"c  c #15383B",
"v  c #1E393D",
"b  c #28222C",
"n  c #3B2126",
"m  c #35222B",
"M  c #3C242A",
"N  c #3A292C",
"B  c #302025",
"V  c #3E312E",
"C  c #202E34",
"Z  c #392932",
"A  c #253636",
"S  c #2C3434",
"D  c #243937",
"F  c #23353C",
"G  c #2A363B",
"H  c #243A3C",
"J  c #2B3A3B",
"K  c #283837",
"L  c #333334",
"P  c #3D3533",
"I  c #33363B",
"U  c #333B3D",
"Y  c #3D3D3D",
"T  c #383837",
"R  c #432425",
"E  c #4A2626",
"W  c #4B2927",
"Q  c #43262B",
"!  c #44292B",
"~  c #4C2B2B",
"^  c #492428",
"/  c #512E2C",
"(  c #4F302F",
")  c #54312E",
"_  c #452A32",
"`  c #462A32",
"'  c #512E30",
"]  c #4D3936",
"[  c #423D3C",
"{  c #483533",
"}  c #553433",
"|  c #583734",
" . c #5B3A36",
".. c #583639",
"X. c #553A39",
"o. c #5C3A3B",
"O. c #563937",
"+. c #613E3D",
"@. c #35413E",
"#. c #3B433F",
"$. c #43413F",
"%. c #5F423D",
"&. c #51403D",
"*. c #62423D",
"=. c #163641",
"-. c #1B3642",
";. c #1C3A43",
":. c #1D3E49",
">. c #133941",
",. c #233640",
"<. c #243C44",
"1. c #2A3C42",
"2. c #233E49",
"3. c #283D48",
"4. c #323D41",
"5. c #3A3D41",
"6. c #473E42",
"7. c #5F3D41",
"8. c #613F41",
"9. c #1E4045",
"0. c #274145",
"q. c #2C4245",
"w. c #26424A",
"e. c #2D434B",
"r. c #2B484C",
"t. c #334245",
"y. c #3B4341",
"u. c #32454B",
"i. c #38434B",
"p. c #354A4D",
"a. c #394B4D",
"s. c #364844",
"d. c #3B504D",
"f. c #2D4A50",
"g. c #2A4451",
"h. c #314751",
"j. c #344A52",
"k. c #3B4D52",
"l. c #394F59",
"z. c #374E58",
"x. c #3B5154",
"c. c #3C525B",
"v. c #335054",
"b. c #444543",
"n. c #4A4644",
"m. c #454844",
"M. c #4E4B4C",
"N. c #4B444A",
"B. c #534542",
"V. c #5C4643",
"C. c #5D4D49",
"Z. c #594B48",
"A. c #42524F",
"S. c #5C514D",
"D. c #434E54",
"F. c #5D4F52",
"G. c #435356",
"H. c #485356",
"J. c #43545A",
"K. c #49555C",
"L. c #45595C",
"P. c #4B5B5E",
"I. c #505B5E",
"U. c #5C5054",
"Y. c #634241",
"T. c #694543",
"R. c #6D4B45",
"E. c #644E4B",
"W. c #6C4D4B",
"Q. c #714E46",
"!. c #714F49",
"~. c #66514D",
"^. c #6E524A",
"/. c #74544C",
"(. c #79574E",
"). c #634F53",
"_. c #635353",
"`. c #6B5453",
"'. c #665858",
"]. c #745552",
"[. c #795652",
"{. c #7B5A52",
"}. c #765956",
"|. c #4E615F",
" X c #4C5660",
".X c #445A61",
"XX c #4C5C63",
"oX c #525F65",
"OX c #575F65",
"+X c #525D62",
"@X c #4E6164",
"#X c #536164",
"$X c #54636B",
"%X c #5B646B",
"&X c #5C6A6C",
"*X c #55686D",
"=X c #536D73",
"-X c #5D6F74",
";X c #556670",
":X c #5F767C",
">X c #626E72",
",X c #65737A",
"<X c #697579",
"1X c #6F7780",
"2X c #727982",
"3X c #7B898B",
"4X c #788388",
/* pixels */
"G J U G 4.G ,.G F F C f C ,.F x C x F x F x k j <.v x x x x F H <.2.x <.x <.0.H l @.j @.J D @.@.S V ",
"a.k.i.U G 5. XoXk. X,XD.F j..XXXJ.XX;X-X.Xk.u.j.e.u.p.p.p.u.e.3.w.;.z <.p.e.x.*X-Xx.l j D s.p.@.L T ",
"+XOXK.i.i.K.,X2XOX1X<XL.4.XX,X1X>X,X2X2X,X*XXX#XH.K.XXoXoX XK.J.c.w.<.v.XXL.&X3X3X#Xl j q.L.+XD.U T ",
"D.P.J.t.u.K.>X%XOX%X@Xx.<.L.&X%XOXOXOXOX+XL.H.a.k.D.J.K.J.J.H.k.l.g.3.k.c.H.#X>X>Xd.l j <.J.P.k.J U ",
"i.a.u.q.1.d.#XXXK.I.H.q.v q.k.K.k.i.a.i.u.u.s.r.u.s.u.u.t.t.p.p.l.3.,.e.G.A.L.|.@Xx.c c v 0.p.q.U y.",
"H F D J i.p.x.G.D.H.a.t.H D G G I I G S K K K D K K K K A A A A C f F i.A.d.d.d.c.r.j c 9.9.<.H s.s.",
"H H r.d.a.@.q.s.J 4.@.U @.b.N.N.M.B.6.Y $.#.[ $.m.m.$.$.Y T L L 5.I I I t.U @.q.q.v j 0.f.c.0.H i.b.",
"H r.G.P.L.D C K U U 6.N.U.).'.`.`.W.C.V.E.C.C.C.~.~.C.B.V.X.] { Z.6._ L L L T I C l H f.c.$Xv.D s.y.",
"H a.P.G.p.D @.M.).).).W.`.^.].].{./.^.^./.^././././.(.Q.R.*.%.%.W.W.W.~.`._.S.S.M.U 1.3.J.XXp.F #.y.",
"v a.#XH.i.J N.F.}.}.}.[.[.[.[.{./.(.(.(.(.(././.{.(.(.*.*.Q.R.Q.[.[./.^.}.{.].~.C.b.J i.H.OXp.J y.b.",
"H G.&X|.p.1.M.'.W.W.W.!.R.W.W./.^././.Q.^.W.!././.R.*.*.*.!./.R.!.(././.W.W.R.E._.b.4.3.D.+Xi.G s.b.",
"0.|.<X&XJ.G I [ ..} .... .o.+.*.| |  .*.R.*.+.| ) ) | ) ) ) ) ) ) +.*. . . .O.X.{ S F i.D. X3.A @.m.",
"v -X3X>Xx.q.L V ! ^ W W / ) o.o.~ W R | +.o.} W E E ^ / / W W / ~ ) | ( / / ) ~ V L G j.a.I.3.A y.n.",
"H -X4X>Xx.t.6.B.O.} / ( o.%.8.7. .) ~ o.+.+.+.o.+.' E ' +.+.+.+.O.} ) | o.+.+.o.B.@.G p.D.+Xi.G @.N.",
"v XX>X#Xx.t.b.B.%.%.) ( | +.8.7...} ~ ..+.8.8.8.8...^ } +.+.+.+.} ] } X.*.Y.8.V.B.5.G h.H.+Xp.J y.m.",
"H P.&X#Xa.G I [ ] | | ( ! ..8.7.o.' R | ....+.+.+.' R ' ......' R { X.X.X.o...X.[ I G i.H.+Xi.S $.N.",
"F $X<X%XG.D p b N ! ! n R Q ! ~ Q ! ! t n ! ~ Q ! R < R ~ ( ~ R < n ^ Q _ _ _ Z 8 b ,.5.H.I.i.K #.n.",
"F oX>X#Xa.D u $ > m N m M t n n R Q Q t n N Q Q Q n , t Q M Q t t M Q M _ M t 0 % 9 3.3.H.+Xi.K #.b.",
",.J.OXI.j.F u o - q N N t t t t M M n r B n M n n t , r t r r r t m M t Z m 0 & # 9 ,.5.D.P.u.D #.N.",
",.D.I.P.p.,.u o $ $ - e e w w 0 w B r > > w B r ; > : r , : ; : e m m e 6 6 & # = 8 3.3.G.L.q.l @.b.",
",.i.K.K.j.F u X o o $ - q e 0 & & > 0 ; ; 0 q - $ & w 0 - ; ; 0 e 0 & & % # # # # 4 x 3.D.G.0.D #.m.",
",.3.G.G.j.x u X X . o = # 0 q 6 % - - & & 0 8 - $ = q - & - 6 6 & & # # # # # # # 3 F h.k.G.q.D #.m.",
"x q.G.x.j.x u X X @ @ X + = 6 = % = = % % & % = o o $   % % % 6 # # % # # # # 1 1 4 F h.k.L.u.D y.b.",
"<.e.K.K.j.v u * + @ + . # # # # # # o % . . . +             . + % # # # # # # # @ 3 F 3.D.XXa.D y.m.",
"H p.P.K.h.-.i @ # # # # # # % % # # # % + + o O         + . + + # # # # # # # 2 @ y ,.u.H.#Xp.A @.m.",
"H p.P.K.p.x y @ # # # # # 6 # # % # # * # o O O . . O O + + # + # # # # # # # 2 * 4 ,.u.G.|.a.S @.m.",
"H p.P.P.j.x i @ # # # # # # # # # o # o # @ O O . O O O + + # + # # # # # # # # * y F u.G.#Xa.A #.m.",
"@.f.XXJ.j.;.i @ # # # % # # # # # * # # # . O o   O O O + O # # # # # # # # # # @ i H t.G.#Xa.K #.m.",
"H p. XK.j.x y @ # # # # $ # # $ # # # o # . . o O O O O O # # # 2 # # # # # # # * y F u.H.XXa.D #.m.",
"<.p.XX Xf.v i * # # # # # # # # o # * # + . o + O O O O + # # # # # # # # # # # @ i F u.G.#Xp.K #.m.",
"H a.+X Xj.x y 1 # # # # # # # # o # o # + . O O O O O O # # # # # # # # = # # # @ y H u.K.@Xa.K #.m.",
"<.a.XXXXj.-.y @ # # # # # # o # # # # o + + + O O O O O # # # # # # # # # # # @ * 4 ,.u.G.|.a.K $.m.",
"H q.H. Xk.3.9 @ # # # # # # # # # # # # # + + + + + + + # # # # # 1 1 # # # # 1 # a ,.3. XoXi.,.#.n.",
"v q.P. Xk.3.9 O + # # # + # # + # # # # # + + + + + + + # # # # # # # # # # # 1 # 4 3.3. X X5.4.b.m.",
"x u.K.K.z.,.4 * @ # # # # # # # # # # # # + + + + + # # # # # # # # # # # # # # # 4 -.3.k.J.3.G $.m.",
"k e.K.K.h.:.4 * + # # # + @ @ # # # # # + + + + + + # + # # # # # # # # # # # # @ a ,.3.D.XXp.G $.m.",
"x t.L.z.<.-.4 X @ # # # + + # # # # # # # # # # # # # # # # # # # # # # # 4 # # @ 4 F h. XoXa.G b.m.",
"H q.z.q.x x y * @ # o # # + # # # # # # + + # + # + + # # # # # # # # # # # # 4 @ 4 ,.u..XXXp.J y.m.",
"H q.j.2.z z 4 * @ # * o # # # o # # # # # # + # # # # # # # # @ 4 # # # # # # # * 4 F e.J.XXu.G y.m.",
"F q.z.q.j z 4 @ @ # # o # o # # # # # # + # # # + # # # # # # # # # # # # # # # @ 4 F u.x.XXt.D #.m.",
"F u..Xl.0.x 4 @ + # * # o # o # # # # # # # # # @ @ # # 2 # # # # # # # # # # # @ 9 D q.a.d.@.k @.N.",
",.k.XX.Xw.k 5 O # @ o # # # X # # # # # # # # # # # # # # # # # # # # # # = # # @ 9 D r.d.d.@.l @.b.",
"1.h..Xc.w.x 5 @ @ + # # o # # # # # # # # # # # # # # # # # # # # = 2 # # = # # @ 4 -.e.d.k.0.l t.b.",
",.h.l.q.-.g a 1 X @ # X @ * o @ # # # # # # # # @ # # 1 # # @ @ 2 # # # # # # @ * 4 -.e.v.k.<.D Y b.",
"-.2.g.=.h h a 5 3 2 1 1 3 2 2 u 3 3 3 # 3 3 2 1 4 4 4 4 2 3 3 3 4 3 3 4 3 3 3 3 5 a c w.r.e.J D b.b.",
"-.=.:.=.h >.=.a f d d s f d s d d d d =.g d d s g g d s f s d d g g f d d d j f x j >.c -.x F D @.y.",
"e.g.h.:.:.=X.Xl.;XXXD.j.j.e.e.e.3.z.3.h.h.3.3.j.k.j.k.i.j.x.j.k.3.3.3.3.0.q.q.q.e.0.9.c v q.u.s.@.y.",
"p..X.X,.9.1X=X$X1X-X$X.XJ.z.u.h.3.z.J.l..Xl.h.k..X.XXX XP.P.P.P.D. X XJ.p.p.f.p.v.v.f.9.v d.L.A.J I ",
"h.j.f.3.j -.u.J.XXJ.J.k.h.<.;.;.=.;.=.;.;.;.-.3.k.k.G.k.k.k.k.D.k.k.k.e.x v ;.2.c.f.:.>.:.r.d.a.S S ",
"3.e.0.-.z g <.e.k.u.1.1.1.x g h h h z z g x g ,.1.3.q.t.t.t.4.t.q.q.3.,.z z h -.f.3.z h c :.q.U S I "
};
