/* XPM */
static char *_5f27be4d27344bfc8e39f810ded93b6hfHpUuDDxA7INzAl[] = {
/* columns rows colors chars-per-pixel */
"50 50 130 2 ",
"   c #352E26",
".  c #342D2A",
"X  c #392F2D",
"o  c #35322D",
"O  c #3B332D",
"+  c #353432",
"@  c #3C3532",
"#  c #3D3A35",
"$  c #3E3538",
"%  c #3F3B39",
"&  c #44362D",
"*  c #433733",
"=  c #4A3635",
"-  c #443C36",
";  c #493C37",
":  c #453C39",
">  c #493D3B",
",  c #4A4037",
"<  c #46403A",
"1  c #4C423D",
"2  c #51443E",
"3  c #4E4341",
"4  c #534643",
"5  c #584644",
"6  c #554945",
"7  c #5A4B46",
"8  c #574B49",
"9  c #5B4E4A",
"0  c #5D514D",
"q  c #5E5351",
"w  c #614F4C",
"e  c #64524E",
"r  c #68554E",
"t  c #63594D",
"y  c #665551",
"u  c #675555",
"i  c #655754",
"p  c #675757",
"a  c #645452",
"s  c #685551",
"d  c #6A5751",
"f  c #685652",
"g  c #695652",
"h  c #6A5753",
"j  c #685254",
"k  c #695752",
"l  c #675853",
"z  c #665953",
"x  c #645955",
"c  c #675A54",
"v  c #665853",
"b  c #685A51",
"n  c #685952",
"m  c #6B5A53",
"M  c #6C5953",
"N  c #6A5854",
"B  c #6B5955",
"V  c #6A5856",
"C  c #695A57",
"Z  c #6A5B56",
"A  c #6C5955",
"S  c #6C5B54",
"D  c #6C5A56",
"F  c #6D5B57",
"G  c #6E5B57",
"H  c #685D57",
"J  c #6E5D56",
"K  c #6B5954",
"L  c #6A5B58",
"P  c #6C5A58",
"I  c #6E5A59",
"U  c #6E5C58",
"Y  c #6F5D59",
"T  c #6D5E59",
"R  c #6E5C5A",
"E  c #6D5E59",
"W  c #705D56",
"Q  c #705D59",
"!  c #705F58",
"~  c #705C5B",
"^  c #705E5A",
"/  c #715E5A",
"(  c #715F5B",
")  c #725F5B",
"_  c #715D5C",
"`  c #765E5E",
"'  c #725F5B",
"]  c #6F6059",
"[  c #6D605A",
"{  c #6D615B",
"}  c #72615A",
"|  c #70615C",
" . c #72605C",
".. c #73605C",
"X. c #73615D",
"o. c #71625D",
"O. c #70615E",
"+. c #74615D",
"@. c #74635C",
"#. c #74625E",
"$. c #75625E",
"%. c #75635F",
"&. c #76635F",
"*. c #71645C",
"=. c #73625D",
"-. c #6E6560",
";. c #726060",
":. c #756160",
">. c #736461",
",. c #736660",
"<. c #766460",
"1. c #776561",
"2. c #776563",
"3. c #746663",
"4. c #726765",
"5. c #766560",
"6. c #786561",
"7. c #786463",
"8. c #786662",
"9. c #786561",
"0. c #736862",
"q. c #776863",
"w. c #786962",
"e. c #786964",
"r. c #7A6864",
"t. c #796A65",
"y. c #7A6B66",
"u. c #7C6867",
"i. c #796860",
"p. c #7B6D6C",
/* pixels */
": 4 9 9 e e e e e e e e e e e a e w e e e f u l l x 1 % < - : : > 9 R I e e e w e P ! A e a e e e e ",
": 9 u 9 9 e e e j e e e e e e e w w e e e e w M r.3.4 # < < # - : w 7.:.j w w w f o.6.P e r e f e e ",
"1 9 j e e e e e e e e e r e e e e e e e e w e f P H 1 * - - - : = 9 7.:.Q u j e e A ! f w e e w e B ",
"a w e e e e e e e e r e e e e e e e e e e e e e e a 1 - : : : > : w $.$.) 6.A r e a e e e e e e J 0.",
"j e e e e e w r e e a e e e w a e e w e e w e e e q 1 - - - - - = q $.<.&.&.M e e e w w e e e a L -.",
"a m | P e e e w e e a e r r e r j e e e e e e d { L < O O O O * : w o.) M r e e e e e w w r J ! 0 1 ",
"u I &.J t w e e j e e a e e e e e e e e e e w A e.,.,   + + O - = 9 $.$.m e w e r w e r w e @.r.0 - ",
"a B W M e t e e e e e e e e e a e e e w e d d a x q - # O + # * * w $.} t w e e r e e j f m t m 2 # ",
"e e e e e e w e e r e e e e e e e e e e f ! &.0 * : - < - # - O . 9 r.3.e e e e e w e B i.{ 2 ; , # ",
"a e w e e e e a e e e a e e e e e e 9 e e | &.t & * - , < - < + X 8 ;.) f e e w r e t m *.Z , * , # ",
"a a e e e w e e a e w r r e e e w e e e e @.*.t ; , - - < < < # * > > > Q ! A e r W *.t 2 2 - - , # ",
"a e w e e w r j e e e e e e e e e e e e a o.w.t - & , - - < < % = * X @ 4.p.o.a u 6.y.e O - - : - < ",
"a w w e e e a w e e e e e e e e e e f f Z e 0 2 * - : : - > : * : * * # 9 9 8 4 5 w p 8 - : < : < # ",
"j w e e e e w j e e e e e e e e e e m $.{ 2 - - - : * > - : > : - - : : $ X $ > > : : - : : - * < # ",
"j e e e e e e e e a r j e e e e e e A <.| 1 * : - : : , : , * > - < < - + O $ * : * : : - : % % % - ",
"a e e e e e e e r w a w j e e e e e A 6.@.2 * : : , : : : - - : - - < - - - * + $ * : : : : : : < < ",
"j w w r e e w r a w w e e e e w e e A 6.&.4 - - : < - - - - - > ; - < - < , # @ @ : > : : : > : > : ",
"a r w w e e j e r r e e e e e e e e e a q 1 - - ; - < : ; : - - - < - < < < : @ $ @ * : % : : : - : ",
"j e e w e e a e w e e a e e a e 0 e 7 - - : - - - : < : : : : - > - : - - : - : * O + * % > : - - > ",
"a e e e e w w e e a e e e e e e e 0 6 * : < - - < - - , : , - - : - - - - , : > - $ $ $ : : : > % - ",
"j e w e e w e e w e a e e e e e e 0 6 % < < - - - - < - - < - - : - , : - ; - < : : * * @ # * < % @ ",
"a e e w e e e r r w e e e e e w 0 a 8 : # - > : < < - < - - : - - - : - - - < - : > < # O o % < $ @ ",
"a w e w e w e w e e e w w e e e x Z 0 : - : : = - - - < - - - - - - - < - ; : - : : % - O @ # # @ @ ",
"a w e e w e e e e e e e e e e e ) 6.a * * > : : < - - - > - - > > - - - - : - : : : < - < - + o . X ",
"a w e e f f e e e e e e e e e e W 3.e > - - - > - - - - - : - < : < ; , : : - , : : - : < - $ o + $ ",
"w e e a ! ) f e e e e e e e e e ! w.z ; - - < : , - < - - - > - - > - - > : - : > , - - - < - : : * ",
"r e e A $.$.f e e e r e e e e e ! 6.t - & < : = : : - - : * - ; : - : , - > - - - - - - - < < : : : ",
"e e w f P A e e e e e e w e e e a e 7 - - - : - : - - < - > - - : - : - - - < - - < > - - - : : : # ",
"0 e e e a e e e e e a e e t e 0 : * : : : : : - : - - - - - : - < - - - : , < - , : - - > - - - > * ",
"t e e e e e 0 e a e e e e 0 z 0 1 & < - : - > - < < < < , : : - > : - - < < - > : ; : - : - - , < : ",
"t e e e e e e e e e e f e e { { 1 - - - - - - < - < - - < : < - - - - < * - - : - * - < * - - : : : ",
"e e f e e a e e e e e e e B &.*.2 & - - < - ; : ; - - - - - - - - < - - - : - : > : : : : > - - - : ",
"r e e e e e e e e e r w r r &.} 2 - < , < - ; - < - - - - : : - : - ; < 3 6 3 : > 4 4 3 : > 4 4 1 > ",
"e e e e e e e e e e e w e r &.} 6 & - - - - ; - - ; - , : < - - > - * - 0 a 6 * > 9 a 8 * > 9 a 6 ; ",
"r e w t e e e e r e e r r M W m 1 - * - < - ; - < - : - - - - : - < 1 1 7 w 6 2 4 9 e 4 ; 4 9 9 5 > ",
") r e e e e e e t e r W @.t , 1 , - < - - < - - - - - < : - - - > 3 0 0 2 > 4 0 9 e 0 w 9 8 3 > 4 9 ",
"&.M t e e e a a j w e | &.t & * : : < : : > : * : ; * : : : : : : 6 a a 1 * 4 e e e 0 e r 9 > = 4 a ",
"9 7 2 2 4 6 6 3 4 4 6 8 0 6 & # % : > : = : : : : > 4 8 3 - - : : 1 6 4 5 4 7 e e e a e w e 7 6 4 4 ",
"; - ; # - - : : : : : * - - o o # : > : : : : : : > 0 u 8 : # : : * : > 9 a e e e e e e e a a a 4 ; ",
"- - - , < : < - > > < : # # @ + % % : > > > > > 1 3 8 0 6 : - > : : > > e a a e e e w e e a 9 0 4 > ",
": > : 3 0 0 1 * 3 q 0 1 - , # # @ @ * : : : > 4 0 0 1 < : : = > : 4 0 w e e a w e e e e e 0 1 ; 6 9 ",
"% : > 3 q a 1 = 4 a 0 1 # - - , @ o @ < : : : 5 q 0 1 * : : : * = 8 a j e a a w e a e 0 e 0 1 * 4 a ",
": : - > 4 4 4 6 4 6 4 6 2 , - O @ o O # # : : > 4 3 1 - : = : : : > 4 4 w j j 0 a a 0 9 4 4 6 7 4 4 ",
"% % % : - < 8 l 8 : : 9 [ 8 , < o o o + @ - : > : > > : : * : : % % - : q q j j a e q 4 @ , 0 a 4 * ",
"% : : : * < 8 0 6 * : 8 8 8 < : + @ + O $ * % - $ - - : : : : : > % > > 9 8 9 w 9 8 9 5 1 1 9 9 4 1 ",
"O % % : < : < < , * : < < < # : % % - + @ + + $ $ @ * > : : : : > > : : > > > > > > > 4 e 9 1 > 6 q ",
"O * < % > > % % : : - - - - % < : : # + + + + + + + * > > : : : > > : : : $ : % - - * 4 j w > ; 6 a ",
"O O # @ @ @ @ $ $ $ @ % : - - < : > @ + + + + + + $ + $ : $ : : = : : : : : : > * : : 3 4 3 > : , 4 ",
"&     O   o   o o o o % : - : - < < # + + + + + + + + X $ : : > $ > > > % > : $ : : % % : % 3 % % - ",
"& O   O O O o O O O + # : - # # : # @ O O O & # O @ @ X @ - : : : $ $ : > : : > : : * > : > : : : # "
};
