/* XPM */
static char *_438aa1d51874f8189dd3020125aa05dFZBEQvvX6j1Xdh1D[] = {
/* columns rows colors chars-per-pixel */
"70 70 146 2 ",
"   c #000005",
".  c #080000",
"X  c #00000B",
"o  c #120300",
"O  c #180006",
"+  c #16040D",
"@  c #1E0E0D",
"#  c #000115",
"$  c #1D1015",
"%  c #260F00",
"&  c #2A0906",
"*  c #281000",
"=  c #21100D",
"-  c #331402",
";  c #3B1501",
":  c #351906",
">  c #3D1901",
",  c #3A1D0A",
"<  c #201215",
"1  c #371D1C",
"2  c #3A1D1C",
"3  c #3C2601",
"4  c #3C2803",
"5  c #3D221C",
"6  c #2D1022",
"7  c #321520",
"8  c #361B21",
"9  c #391E22",
"0  c #3D2322",
"q  c #421E02",
"w  c #442301",
"e  c #432A02",
"r  c #4B2B04",
"t  c #552B00",
"y  c #5A2D00",
"u  c #4C370A",
"i  c #563402",
"p  c #5B3301",
"a  c #553906",
"s  c #5B3A04",
"d  c #523C0C",
"f  c #41251C",
"g  c #652A00",
"h  c #6B3300",
"j  c #633B00",
"k  c #763600",
"l  c #743D00",
"z  c #7D3E00",
"x  c #422623",
"c  c #462826",
"v  c #4A2B26",
"b  c #4D2D28",
"n  c #502F28",
"m  c #644200",
"M  c #694600",
"N  c #6B4900",
"B  c #6B4E0A",
"V  c #7C4200",
"C  c #744B00",
"Z  c #7D5500",
"A  c #77560B",
"S  c #7C570C",
"D  c #79580D",
"F  c #7C5B10",
"G  c #834600",
"H  c #894500",
"J  c #864900",
"K  c #8B4B00",
"L  c #914E00",
"P  c #8E5100",
"I  c #845900",
"U  c #895D01",
"Y  c #945200",
"T  c #985400",
"R  c #955800",
"E  c #9B5B00",
"W  c #A05F00",
"Q  c #8A610E",
"!  c #9E6700",
"~  c #9E6800",
"^  c #9F6109",
"/  c #94680C",
"(  c #976C10",
")  c #A96500",
"_  c #A36C00",
"`  c #A96D00",
"'  c #A2630B",
"]  c #AC6F0F",
"[  c #B16F00",
"{  c #AC7400",
"}  c #B37301",
"|  c #B47801",
" . c #BB7C00",
".. c #A66810",
"X. c #A96C13",
"o. c #B87A15",
"O. c #C07E00",
"+. c #BE8100",
"@. c #C38400",
"#. c #C98700",
"$. c #CD8A00",
"%. c #C4880A",
"&. c #CB8C09",
"*. c #D28F00",
"=. c #CF900E",
"-. c #D49200",
";. c #D99600",
":. c #D3920C",
">. c #D8960A",
",. c #DB990A",
"<. c #C68B11",
"1. c #CD8E10",
"2. c #CE9110",
"3. c #D49311",
"4. c #DD9B12",
"5. c #E19F15",
"6. c #E3A015",
"7. c #E9A415",
"8. c #E4A31E",
"9. c #E8A61D",
"0. c #EEAA1D",
"q. c #F0AB1D",
"w. c #DA9F28",
"e. c #DDA226",
"r. c #E3A526",
"t. c #EEAE26",
"y. c #E1A728",
"u. c #E6AA2B",
"i. c #EBAE2D",
"p. c #F0AE26",
"a. c #EEB02E",
"s. c #F5B52C",
"d. c #F8B72D",
"f. c #F9B82E",
"g. c #FBB92E",
"h. c #FCBB2F",
"j. c #FEBC2F",
"k. c #F9B830",
"l. c #FFBD30",
"z. c #FFBE32",
"x. c #FFBF33",
"c. c #FFC130",
"v. c #FFC033",
"b. c #FFC534",
"n. c #FFC635",
"m. c #FFC436",
/* pixels */
"v v v v v v v v v v v v v v v v v v v v v v v v v v v v c v v v v v v v v v v v v v v v v v v v v v v v v v v v v v v v v v v v v v v v v f ",
"v v v v v v v v v v v v v v v v v v v v v v v v v v v v v v v v v v v v v v v v v v v v v v v v v v v v v v v c v v v v v v v v v v v v v n ",
"v v v v v v v v v v v v v v v v v v v v v v v v v v v v v v v v v v v c v v v v v v v v v c v v v v v v v v v v v v v v v v v v v v v v v v ",
"v v v v v v v v v v v v v v v v v v v v v v v v v v v v v v v v v v v v v v v v v v v v v v v v v v v v v v v v v v v v v v v v v v v v v v ",
"v v v v v v v v v v v v v v v v v v v v v v v v v v c v v v v v v v v v v v v v v v v v v v v v v v v v v v v v v v v v v v v v v v v v v v ",
"v v v v v v v v v v v v v v v c v v v v v v v c v v v v v v v v v v v v v v v v v v v v v v v v v v v v v v v v v v v v v v v v v v v v v v ",
"v v v v v v v v v v v v v v v v v v v v v v v v v v v v v v v v v v v v v v v v v v v v v v v v v v v v v v v v v v v v v v v v v v v v v v ",
"v v v v v v v v v v v v v v v v v v v v v v v v v v v v v v v v v v v v v v v v v v v v v v v v v v v v v v v v v v v v v v v v v v v v v v ",
"v v v v v v v v v v v v v v v v v v v v v v v v v v v v v v v v v v v v v v v v v v v v v v v v v v v v c v v v c v v v v v v v v v v v v v ",
"v v v v v v v v v v v v v v v v v v v v v v v v v v v v v v v v v v v v v v v v v v v v v v v v v v v v v v v v v v v v v v v v v v v v v v ",
"v v v v v v v v v v v v v v v v v v v v v v v v v v v v v v v v v v v v v v v v v v v v v v v v v v v v v v v v v v v v v v v v v v v v v v ",
"v v v v v v v v v v v v v v v v v v v v v v v v v v v v v v v v v v v v v v v v v v v v v v v v v v v v v v v v v v v v v v v v v v v v v v ",
"v v v v v v v v v c v v v v v v v v v v v v v v v v v v v v v v v v v v v v v v v v v v v v v v v v v v v v v v v v v v v v v v v v v v v v ",
"v c v v v v v v v v v v v v v v v v v v v v v v v v v v v v b v v v b v b v v v v v v v v v v v v v v v v v v v v v v v v v v v v v v v v v ",
"v v v v v v v v v v v v v v c v v v v v v v v v v v v v b b b v v v v b v b b v v v v v v v v v v v v v v v v v v v v v v v v v v v v v v v ",
"v v v v v v v v v v v v v v v v v v v v v v v v v v b c 0 8 8 0 f c x f 0 0 0 x v v v v v v v v v v v v v v v v v v v v v v v v v v v v v c ",
"v v v v v v v v v v v v v v v v v v v v v v v v v v n x #   X X + = X X X X   $ c n v v v v v v v v v v v v v v v v v v v v v v v v v v v v ",
"v v v v v v v v v v v f v v v v v v v v v v v v b v 9 f s m m a o   > w q ; ; : 8 0 c b v v v v v v v v v v v v v v v v v c v v v v v v v v ",
"v v v v v v v v v v v v v v v v v v v v v v v n n 9 # r _ +.@._ 3   l H z z V h O # 0 n b v v v v v v v v v v v v v v v v v v v v v v v v v ",
"v v v v v v v v v v v v v v v v v v v v v v v c 9 2 e U 3.7.7.1.U i l K W ) ) E C a 5 9 c v b v v v v v v v v v v v v v v v v v v v v v v v ",
"v v v v v v v v v v v v v v v v v v v v v n n 9 # w ! &.t.k.l.t.&.! w p  .*.$.@.@.{ r # 9 b b v v v v v v v v v v v v v v v v v v v v v v v ",
"v v v v v v v v v v v v v v v v v v v v v v x f e U &.0.x.m.v.l.q.&.Z M { $.*.-.;.#.I r x x c v v v v v v v v v v v v v v v v v v v v v v v ",
"v v v v v v v v v v v v v v v v v v v v b 0 # i ! &.t.x.x.j.x.x.h.t.&._ C Z +.-.-.$.@.` s # 0 b v v v v v v v v v v v v v v v v v v v v v v ",
"v v v v v v v v v v v v v v v v v v v v b 8   m &.0.x.c.x.x.x.x.c.h.q.%.4 4 <.6.4.4.9.2.M   8 b v v v v v v v v v v v v v v v v v v v v v v ",
"v v v v v v v v v v v v v v v v v v v b n 6   B e.c.x.x.z.z.z.z.x.v.c.e.u d r.c.h.h.x.r.B   6 n v v v v v v v v v v v v v f v v v v v v v v ",
"v v v v v v v v v v v v v v v v v v v c x 2 > ( a.m.c.x.z.z.z.z.x.v.m.i.Q S w.g.d.g.h.u./ q 5 x v v v v v v v v v v v v v v v v v v v v v v ",
"v v v v v v v v v v v v v v v v v v b 9 # i ~ =.s.x.x.x.z.z.z.z.x.x.x.s.&.{ ] o.2.4.,.:.@._ s # x v v v v v v v v v v v v v v v v v v v v v ",
"v c v v v v v v v v v v v v v v v v n 8   M &.0.k.x.x.x.z.z.z.z.x.x.x.k.0.&.Y L &.4.4.4.7.2.N   9 v v v v v v v v v v v v v v v v v v v v v ",
"v v v v v v v v v v v v v v v v v b v 7   A e.c.x.x.l.x.l.x.z.z.x.l.x.x.x.r.' ^ r.l.g.h.x.y.F   2 b v v v v v v v v v v v v v v v v v v v v ",
"v v v v v v v v v v v v v v v v v v b 7   F a.m.j.x.x.l.x.l.z.z.l.x.x.c.x.i...' u.x.h.h.x.y.D   7 v v v v v v v v v v v v v v v v v v v v v ",
"v v v v v v v v v v v v v v v v v v b 7   F i.m.c.x.x.x.l.x.z.z.x.l.x.x.m.i.X.T 1.5.4.5.5.<.M X 8 v v v v v v v v v v v v v v v v c v v v v ",
"v v v v v v v v v v v v v c v v v b v 7   F u.m.v.x.x.x.x.l.z.z.l.x.x.c.c.i.X.Y O.-.$.$.-. .m X 9 b b v v v v v v v v v v v v v v v v v v v ",
"v v v v v v v v v v v v v v v v c b b 7   F u.m.x.z.z.z.z.z.z.z.x.z.x.x.x.i.X.Y O.-.*.*.-. .m X 9 b b v v v v v v v v v v v v v v v v v v v ",
"v v v v v v v v v v v v v v v v v v b 7   F u.m.x.z.z.z.z.z.z.x.z.z.x.x.m.i.X.Y @.-.*.-.;.+.m X 8 b b v v v v v v v v v v v v v v v v v v v ",
"v v v v v v v c v v v v v v v v v b b 7   F u.m.x.x.z.z.z.z.x.l.z.z.z.x.m.i.X.Y @.-.$.-.;.+.m X 8 b v c v v v v v v v v v v v v v v v v v v ",
"v v v v v v v v v v v v v v v v v v b 7   F u.m.x.x.z.z.z.z.l.x.z.z.z.x.m.i.X.Y @.-.-.-.-.+.m X 0 v b v v v v v v v v v v v v v v v v v v v ",
"v v v v v v v v v v v v v v v v v b v 6   F u.m.x.x.x.x.x.l.x.l.x.x.c.j.m.s.X.Y @.-.*.-.;.@.m X 8 v b v v v v v v v v v v v v v v v v v v v ",
"v v v v v v v v v v v v v v v v v v b 7   F i.m.x.x.x.l.l.x.l.x.x.x.x.x.j.r...Y @.;.-.*.$.| s X 0 v v v v v v v v v v v v v v v v v v v v v ",
"v v v v v v v v v v v v v v v v v v b 1   F i.v.x.l.l.x.x.l.x.x.x.x.m.x.9.&.E E @.;.;.$.} K w X 0 v v v v v v v v v v v v v v v v v v v v v ",
"v v v v v v v v v v v v v v v v v v b 6   D e.x.x.x.x.l.l.x.x.x.x.h.k.p.,.O.R T  .$.$. .E k ; # 0 b b v v v v v v v v v v v v v v v v v v v ",
"v v v v v v v v v v v v v v v v v b b 7 X m &.0.h.x.x.x.x.l.x.x.x.k.8.,.;.$.E K E W W E T G >   0 b v v c v v v v v v v v v v v v v v v v v ",
"v v v v v v v v v v v v v v c v v v b 0 # s _ =.t.h.x.x.x.x.v.c.g.t.>.$.@.| E K H J H H J l q $ 0 v v v v v v v v v v c v v v v v v v v v v ",
"v v v v v v v v v v v v v v v v v v v v x f e U &.0.x.c.x.x.v.s.8.>.;.@.I j H L K L L G y , 5 c v v v v v v v v v v v v v v v v v v v v v v ",
"v v v v v v v v v v v v v v v v v v v v b 8 X w ` :.p.g.d.s.k.s.>.$.$.{ e   z L L L L G : X 0 b b v v v v v v v v v v v v v v v v v v v v v ",
"v v v v v v v v v v v v v v v v v v v b b 0   ; K } 3.5.4.4.4.4.;.$.[ K % . V Y L L Y J >   0 b v v v v v v v v v v v v v v v v v v v v v v ",
"v v v v v v v v v v v v v v v v v v v v b x < : g Y  .#.$.$.$.$.$.| Y g q t J L L L K l w $ x b v v v v v v v v v v v v v v v v v v v v v v ",
"v v v v v v v c v v v v v v v v v v v v v v c 5 & i K { $.;.;.#.[ Y r ; l J K L Y J y : 0 c v v v v v v v v v v v v v v v v v v v v v v f n ",
"v v v v v v v v v v v v v v v v v v v v v v b x # & g P  .$.$. .Y g > t K T Y K H l : # 0 b v v v v v v v v v v v v v v v v v v v v v v v v ",
"v v v v v v v v c v v v v v v v v v v v v v v v x 2 & p E ) ) T y w z K L L T H t 3 5 f c v v v v v v v v v v v v v v v v v v v v v v v v v ",
"v v v v v v v v v v v v v v v v v v v v v v v v b x # - h z G h o % l K J G J l : # 0 b v v v v v v v v v v v v v v v v v v v v v v v v v v ",
"v v v v v v v v v v v v v v v v v v v v v v v v b v x 5 , ; > -   . > w q q w 3 5 x c b v v v v v v v v c v v v v v v v v v v v v v v v v v ",
"v v v v v v v v v v v v v v v v v v v v v v v v v b n x $ X   X @ @ X X X X X $ x n b v v v v v v v v v v v v v v v v v v v v v v v v v v v ",
"v v v v v v v v v v v v v v v v v v v v v v v v v v v c x 0 0 0 x x f 0 0 0 0 0 b b c v v v v v v v v v v v v v v v v v v v v v v v v v v v ",
"v v v v v v v v v v v v v v v v v v v v v v v v v v v v v b b v v v n v b b v v v v v v v v v v v v v v v v v v v v v v v v v v v v v v v v ",
"v v v v v v v v v v v v v v v v c v v v v v v v v v v v v b v b v v v b b v b v v v v v v v v v v v v v v v v v v v v v v v v v v v v v v v ",
"v v v v v v v v v v v v v v v v v v v v v v v v v v v v v v v v v v v v v v v v v v v v v v v v v v v v v v v v v v v v v v v v c v v v v v ",
"v v v v v v v v v v v v v v v v v v v v v v v v v v v v v v v v v v v v v v v v v v v v v v v v v v v v v v v v v v v v v v v v v v v v v v ",
"v v v v v v v v v v c v v v v v v v v v v v v v v v v v v v v v v v v v v v v v v v v v v v v v v v v v v v v v v v v c v v v v v v v v v v ",
"v v v v v v v v v v v v v c v v v v v v v v v v v v v v v v v v v v v v v v v v v v v v v v v v v v v c v v v v v v v v v v v v v v v v v v ",
"v v v v v v v v v v v v v v v v v v v v v v v v v v v v v v v v v v v v v v v v v v v v v v c v v v v v v v v v v v v v v v v v v v v v v v ",
"v v v c v v v v v v v v v v v v v v v v v v v v v v v v v v v v v v v v v v v v v v v v v v v v v v v v v v v v v v v v v v v v v v v v v v ",
"v v v v v v v v v v v v v v v v v v v v v v v v v v v v v v v v v v v v v v v v v v v v v v v v v v v v v v v v v v v v v v v v v v v v v v ",
"v v v v v v v v v v v v c v v v v v v v v v v v v v v v v v v v v v v v v v v v v v v v v v v v v v v v v v v v v v v v v v v v v v v v v v ",
"v v v v v v v v v v v v v v v v v v v v v v v v v c v v v v v v v v v v v v v v v v v v v v v v v v v v v v v v v v v v v v v v v v v v v v ",
"v v v v v v v v v c v v v v v v v v v v v v v v v v v v v v v v v v v v v v v v v v v v v v v v v v v v v v c v v v v v v v v v v v v v v v ",
"v v v v v v v v v v v v v v v v v v v v v v v v v v v v v c v v v v v v f v v v v v v v v v v v v v v v v v v v v v v v v v v v v v v v v v ",
"v v v v v v v v v v v v v v v v v v v v v v v v v v v v v v v v v v v v n v v v v v v v v v v v v v v v v v v v v v v v v v v v v v v v v v ",
"v v v v v v v v v v v v v v v v v v v v v v v v v v v v v v v v v v v v v v v v v v v v v v v v v v v v v v v v v v v v v v v v v v v c v v ",
"v v v v v v v v v v v v v v v v v v v v v v v v v v v v v v v v v v v v v v v v v v v v v v v v v v v v v v v v v v v v v v v v v v v v v v ",
"v v v v v v v v v v v v v v v v v v v v v v v v v v v v v v v v v v v v v v v v v v v v v v v v v v v v v v v v v v v v v v v v v v v v v v "
};
