/* XPM */
static char *_38a22283f2a43e7dfc1f6f0208cb004rRXVQeP4MTOgphb4[] = {
/* columns rows colors chars-per-pixel */
"70 70 234 2 ",
"   c #040001",
".  c #0A0100",
"X  c #0D0A0B",
"o  c #030A0C",
"O  c #130303",
"+  c #190404",
"@  c #190906",
"#  c #140A0A",
"$  c #1B0B0A",
"%  c #190707",
"&  c #1D110E",
"*  c #091315",
"=  c #1E1211",
"-  c #181717",
";  c #090F10",
":  c #230D0D",
">  c #260A0A",
",  c #25120E",
"<  c #240E10",
"1  c #231413",
"2  c #2A1514",
"3  c #241816",
"4  c #2C1916",
"5  c #231A1A",
"6  c #2C1C1B",
"7  c #251618",
"8  c #331D1B",
"9  c #351B19",
"0  c #2D211E",
"q  c #33211E",
"w  c #3B221E",
"e  c #361F20",
"r  c #0E2326",
"t  c #17282A",
"y  c #192D30",
"u  c #2C2423",
"i  c #232423",
"p  c #342424",
"a  c #3C2522",
"s  c #332B2B",
"d  c #3B2A2A",
"f  c #3B2926",
"g  c #3C3535",
"h  c #3C393B",
"j  c #2A3536",
"k  c #0D1D21",
"l  c #422623",
"z  c #442925",
"x  c #4A2B25",
"c  c #442B2A",
"v  c #4B2D29",
"b  c #482728",
"n  c #502D2D",
"m  c #4E302C",
"M  c #43312F",
"N  c #443333",
"B  c #4A3333",
"V  c #4C3B3B",
"C  c #443D3C",
"Z  c #523334",
"A  c #533A39",
"S  c #5C3E3D",
"D  c #512F30",
"F  c #623D3D",
"G  c #533F40",
"H  c #344E51",
"J  c #395457",
"K  c #4B4545",
"L  c #534645",
"P  c #5B4C4C",
"I  c #5A4646",
"U  c #585859",
"Y  c #495558",
"T  c #634344",
"R  c #664A4A",
"E  c #6D4B4C",
"W  c #674746",
"Q  c #6D504E",
"!  c #6E4F50",
"~  c #6D5454",
"^  c #6C5959",
"/  c #655757",
"(  c #715354",
")  c #73595A",
"_  c #785B5A",
"`  c #744C4E",
"'  c #78605F",
"]  c #4A5E61",
"[  c #505F61",
"{  c #7C5F60",
"}  c #6F5F60",
"|  c #4D6365",
" . c #576F72",
".. c #536F71",
"X. c #656364",
"o. c #746363",
"O. c #7B6464",
"+. c #796A6A",
"@. c #7A7676",
"#. c #756D70",
"$. c #875C5C",
"%. c #92605E",
"&. c #805D60",
"*. c #846A6A",
"=. c #8B6B6B",
"-. c #8B6363",
";. c #916E6D",
":. c #996767",
">. c #876F70",
",. c #8B7676",
"<. c #947372",
"1. c #937B7A",
"2. c #9C7879",
"3. c #93716F",
"4. c #A47D7D",
"5. c #AC7E7F",
"6. c #AB7675",
"7. c #94807E",
"8. c #B7817F",
"9. c #A7817F",
"0. c #697D82",
"q. c #9D7F80",
"w. c #A77F80",
"e. c #5C8082",
"r. c #648588",
"t. c #788C90",
"y. c #749CA1",
"u. c #7AA4A7",
"i. c #8A8988",
"p. c #948382",
"a. c #9B8383",
"s. c #9D8C8C",
"d. c #978A88",
"f. c #879598",
"g. c #969797",
"h. c #9F8F90",
"j. c #A48382",
"k. c #AC8484",
"l. c #A48C8B",
"z. c #AE8A8A",
"x. c #AE8789",
"c. c #B28A89",
"v. c #BC8D8D",
"b. c #B48585",
"n. c #A99797",
"m. c #B49594",
"M. c #BA9394",
"N. c #B39C9D",
"B. c #B99A99",
"V. c #B6908E",
"C. c #B5A09E",
"Z. c #BCA19F",
"A. c #B49FA1",
"S. c #8BABAD",
"D. c #99A5A7",
"F. c #89ADB1",
"G. c #8CB7BC",
"H. c #90BBBF",
"J. c #A6A3A5",
"K. c #BBA3A2",
"L. c #B5A7A7",
"P. c #B9AFB1",
"I. c #BDBBBC",
"U. c #B8B4B4",
"Y. c #A9B6B7",
"T. c #C28B8B",
"R. c #C59C9C",
"E. c #CB9C9B",
"W. c #C69595",
"Q. c #D39D9C",
"!. c #CDA09F",
"~. c #C4A4A3",
"^. c #CDA4A4",
"/. c #C4ACAB",
"(. c #CCACAC",
"). c #C9A7A8",
"_. c #D1A3A3",
"`. c #D3ABAB",
"'. c #D6A9A8",
"]. c #CBB1AF",
"[. c #DBAFB0",
"{. c #CBB3B2",
"}. c #C6B7B8",
"|. c #D4B3B3",
" X c #DCB4B4",
".X c #DCB9B6",
"XX c #D5BBBB",
"oX c #DCBCBC",
"OX c #D7B8B8",
"+X c #CFB1B0",
"@X c #E2BBBB",
"#X c #E3B7B6",
"$X c #DBC1BE",
"%X c #E0C0BF",
"&X c #A8BEC2",
"*X c #90BDC2",
"=X c #C2BFC0",
"-X c #DDBFC0",
";X c #E6BFC1",
":X c #9BC6CC",
">X c #9CC9CF",
",X c #9DCBD2",
"<X c #A4CACE",
"1X c #A4C4C9",
"2X c #B4C6CA",
"3X c #B6C4C6",
"4X c #A3CED2",
"5X c #A8CED4",
"6X c #C8C5C6",
"7X c #DDC2C2",
"8X c #D3C7C9",
"9X c #D5D3D3",
"0X c #E6C4C2",
"qX c #E4C7C5",
"wX c #E7C7C6",
"eX c #E6C5C5",
"rX c #E4C6C5",
"tX c #E9C6C6",
"yX c #E5C9C6",
"uX c #E8C9C6",
"iX c #E5C7C8",
"pX c #E5CAC9",
"aX c #EACBCB",
"sX c #EAC7CA",
"dX c #EDD0CD",
"fX c #EED2D1",
"gX c #F1D2D3",
"hX c #EFCFD0",
"jX c #EEEDEC",
"kX c #F1EDED",
"lX c #F4F3F3",
"zX c #FDFCFD",
"xX c #F8F6F7",
"cX c #F3F1EF",
/* pixels */
"x x x x x x x x x x x x x x x x x x x x n v m x w 3 .     .               .           . 7 b v v v v x v x x x x x x x x x x x x x x x x x x ",
"x x x x x x x x x x x x x x x x v v x x b l z z q @ . .                                 O p z c c z v x v v x x x x x x x x x x x x x x x x ",
"x x x x x x x x x b x x x x x b v v v l 9 2 2 2 @ .   .               .               . . + 7 4 2 8 l v v v v x x x x x x x x x x x x x x x ",
"x x x x x x x x x x x x x x x z l c c a + . . . O M V V V V V V A V V V V V V V V V A V c O . .   % 8 b c x x c x x x x x x x x x x x x x x ",
"x x x x x x x x v x x x x x z 9 4 4 6 O .       a =.4.j.4.4.4.4.4.w.4.w.w.4.4.4.w.4.w.w.=.a .     . O 6 4 4 8 b x x x x x x x l x x x x x x ",
"x x x x x x x x x x x x x x w , .   . # 6 p = f _ V.`.'._.^.^._.!._.!.^._.^._.!._._.'._.V.{ f = p 6 % . . . < a z x x x l x x x x x x x x x ",
"x x x x x x x x x x v v b 9 + . .   . p -.1.l.m.~.|.oX@X.X@X.X@X X@X.X#X#X.X#X.X.X.X@XoX|.~.m.l.2.' 8 . . . . + q z z x x x x x x x x x x x ",
"x x x x x x x x x x x z 4 + + 6 p d N ) c.).OX0XaXyXqXrX0XwXrX0X;XeX0XeXeX0XeXeX0XeXsXiXiXpX0XOX).z._ N d f 6 O @ 4 l x x x x x x x x x x x ",
"x z z x x x x v x x w 6 O . c _ <.a.z.B.|.oXrXsXaXsXqXwXrXuXrXrXiXiXwXwXuXrXwXuXwXuXrXpXsXaXpXrX.X`.B.l.q.<._ c . O 2 l z x x x v v x x x x ",
"x x x z z x x v x l , . . O ( k.). X$XqXrXrXrXuXqXqXqXrXrXrXrXqXrXrXrXrXqXqXrXqXrXrXrXrXqXqXqXrXiXwXpX7XOX).k.( . . . 2 w v x x v v x x l x ",
"z x x x x m v z w , . @ Z _ 9.^.@XrXsXpXsXwXrXrX0XyXqXrXqXqXqXqXqXqXrXrXqXqXqXqXqXqXrXrXqXqXqXqXwXsXsXsXiX X^.k.$.B % . , w z x v v x x x z ",
"x x x x x m c q @ . + w =.M.`.@XqXsXqXqXrXrXrXrXqXyXqXqXqXqXqXqXqXrXrXrXqXqXqXqXqXqX0XrXqXqXrXqXrXrXeXiXiXiXoX`.m.=.a O . $ q x x x x x x x ",
"x m x x z l 9 + . f W =.M.`.@XrXrXyXqXqXrXrXqXqXqXqXqXqXqXqXqXqXqXqXqXqXqXqXqXqXqXqXqXqXqXqXqXqXrXwXrXwXsXuXrX@X`.m.*.R f . + 6 l x x x x x ",
"x x x m b 4 +   . P 2.R.`.%XiXiXyXqXqXqXrXqXqXqXqXqXqXqXqXqXqXqXqXqXqXqXqXqXqXqXqXqXqXqXqXqXqXqXrXwX0XwXqXqXqXwX@X|.R.2.P .   @ 4 l z x x x ",
"x m x m z , .     ^ m.OX0XqXrXqXqXqXqXrXrXrXqXqXqXqXqXqXqXqXqXqXqXqXqXqXqXqXqXqXqXqXqXqXqXqXqXqXqXrXrXrXqXqXpXqXwX0X Xm.^     . , z v v x x ",
"x x x c a 2 .     o.~.0XqXqXqXqXqXyXqX0XrXrXqXqXqXqXqXqXqXqXqXqXqXqXqXqXqXqXqXqXqXqXqXqXqXqXqXqXqXrXrXrXqXqXqXqXrXsX0X~.o.. . . , l x v x x ",
"x x z l 9 O + > G w.{.sXaXqXqXqXqX7XqXqXrXrXrXyXqXqXqXqXqXqXqXqXqXqXqXqXqXqXqXqXrXrXqXqXyXyX7XyXrXiXiXqXiX7XiXiXiXpXsX{.q.G < + O 9 w x x x ",
"v x w , . . e _ j.)..XrXsXqXyXqXqXqXrXrXwXrXqXqXqXqXqXqXqXqXqXqXqXqXqXqXqXqXqXqXrXqXqXqXyXyXyX7XiXrXiXiXrXrXiXiXiXpXiXXX).w.{ 8 . O , w x x ",
"v x 9 +   . p 1.)..XrXrXqXqXqXqXqXwXrXwXqXqXqX7XqXqXqXqXqXqXqXqXqXqXqXqXqXqXqXqXrXrXqXqX7XyXyX0XiXiXrXrXiXiXiXiXiXpXiXrX.X~.1.e     + 9 x n ",
"n x q $ .   4 a. XtXrXqXqXqXqXqXqXqXwXrXqXyXyXyXqXqXqXqXqXqXqXqXqXqXqXqXqXqXqXqXrXrXqXyXyXyXyXyX7XrXrXrXiXiX7XiX7XiXiXiXsXOXj.7 .   $ q x v ",
"x a 2 O . 6 R m.$XdXqXyXyX$XqXqXyX7XqXqX7X7XaXyXqXqXqXqXqXqXqXqXqXqXqXqXqXqXqXqXrXqXqXqXqXqX0XyXiXiXpXiXpXiXpXiXyXqXqXpXaX0Xm.R 3 . O 2 l c ",
"2 $ . % A =.z.(.0XaXaXqXdXaXdXyXaXaXaXdXaXaXdXyXqXqXqXqXqXqXqXqXqXqXqXqXqXqXqXqXqXqXqXqXqXqXyXaXpXhXsXpXhXpXsXsXaXsXrXiXsXrX+Xz.*.V $ . : 4 ",
"      1 ~ x.(.#X0XqXqX0X$X$X$X$X$X$X$X$X$XXX$X0XqXqXqXqXqXqXqXqXqXqXqXqXyXqX7X0X0XyXqXqX0X7XyX$X-X-X-X-X-X=X-X=X$X$X0XrXpX0X.X'.x.~ 1       ",
"      1 ! c.'.#X%XqX$X|.m.<.+.+.+.7.7.7.7.l.B.{.oX0XqXqXqXqXrXrXqXqXqXqXyXyXyXyXyXqXqXqX0X%X+Xm.,.+.+.*.q.q.q.q.s.Z.|.@XrX0X@X'.b.~ 1       ",
".     = ! k._.@X0X%X`.m.,.I g h C s i s u B *.m.`.7XrXsX0XrXrXrXqXqXqXqXqXqXyXyXiXqXqXqX.X+Xm.<.P g C C s u s p c *.M.`.;XtX#X_.k.! 1       ",
"      = ` b._.@XtX Xz.>.h.U.$X3XY.7.-       B -.z.|.uXsXwXwXqXqXrXrXqXqXqXqX0XyXqXyXqXqX|.j.,.n.P.=X=XU.0.h     . V O.M.oXiX@X_.b.~ <       ",
"      1 E w.Q.#XuX~.^ N Y.xXzXzXcXI.Y .     . 8 +./.pXsXqXqXqXqXrXqXqXqXqXqXyX7XyXqXqXyX).W L U.lXzXzXxX}./       . $ >.(.tX@X_.k.E =       ",
".     = ` T.'.#X.Xm.L C I.zXzXzXxX6XU X       5 ' /.qXaXpXqXqXpXsXaXaXaXqXaXaXaXyXqXaXyXK.V K I.zXzXzXzX6XX.        . } B.#X#X'.b.! 1       ",
"      = ( b.Q.'._.9.B V I.xXzXzXcX$XK X       i +./.pXaXqXqXqXrXqXpXqXpXaX7XpXpXyXpXaXyX/.I K U.cXzXzXxXI.U           ) c._.'.!.k.~ 1   .   ",
"      < E w.Q.Q.Q.9.I s i.6X9X9X6Xf.h .       u +./.pXfXdX$X/.N.N.N.A.N.N.N.N./.7XfXdXyX/./ g i.=X9X9X6Xg.K         . ~ x.E._.W.5.E <       ",
"  .   : F :.w.Q.Q.c.~ . h U X.X.U K - o       u +./.pXgXaX{.1.V C K L L K V C 1.{.aXfXyX/.+.i g U X.X./ K -         . ^ b.Q.Q.5.:.F : . . . ",
"5 1 . + b ` :.T.Q.V.^ .               * X o   5 o.].7X7X].d.L                 K d./.7XqX].o.0               - ;     . ) c.Q.T.:.` b O . 1 3 ",
"z a 6 O . > S 5.E.v.) .               X X   . 5 +.{.7XK.o.- . X # X o X X # ; . 3 o.K.7X{.+.6             o o X   . O ) v.E.4.S @ . O 2 w z ",
"v v 8 $   . 2 ;.W.v.3.R d                 . 6 R a.XX7Xl.C s @.g.g.g.d.g.g.g.g.@.s C s.7XXXa.P 4                   d R <.v.W.;.2 .   $ q x m ",
"v x 9 +   . 9 $.5.T.W.x.+.5   o o * ; o   6 ) k.).rX$Xp.u #.6XlXlXlXjXjXjXlXxX8X#.u p.-X0X).l.) 6     * * * o   5 O.z.W.T.w.$.9 .   @ 4 z v ",
"x x w , O . 4 T %.8.E.^.h.X.Y ] | | [ Y K ( j.^.@XiXoX7.u #.6XcXcXkXjXjXjXcXcX6X+.u p.$XsX.X).k.^ L Y ] | | ] Y X.h.).E.w.%.F 2 . O , w z v ",
"v x x l q @ O < n :.T.^.P.D.F.F.F.S.S.D.h.z.)..XrXsX-Xa.N u o.d.d.d.d.i.d.d.d.o.u g a.oXaXiX#X~.z.l.D.D.F.F.F.F.D.P.(.v.:.n > O @ q l x x x ",
"x x v v z 1   . + W 5.~.I.3X5X4X4X<X<X3X/.`.OXrXaXhX7XN.o.s u 0 0 q 0 0 u 0 p 0 s ' n.7XaXiXtX.X(.}.&X<X4X4X4X5X2X}.~.k.` + . . 4 w x m x x ",
"x x v v l ,     . S :.W.U.1X4X,X,X<X<X3X6X-XrXrXiXpXrX|.K.K.K.C.C.C.C.C.C.K.C.C.L./.OXqXsXuXwX0X7X6X2X<X4X,X,X4X2XU.v.:.F . . . > l x n x x ",
"x x v x l 2 O . O v $.4.J.:X>X>X:X:X<X2X8XiXqXiXiXpX7XiXpXpXyXpXyXyXyXyXyXyXyXyX7XyXyXqXrXrXrXwXiX8X2X1X:X,X,X>X1XJ.4.$.D . . O 9 x x x x x ",
"x x x x x w 9 + . , n ~ t.S.*X:X,X>X<X2X8XdXpXqXqXqXqXqXpXsXpXsXaXaXaXyXsXpXsXaXpXpX0XyXqXqXqXuXsX8X2X1X:X,X:X*XS.t.( n < . + 9 w x x x x x ",
"x x x x x x x 9 % O + p ] r.y.:X:X,X<X3X8X7XyXyXqXpXqXqXqXyXqXiXqXqXyXyXqXqXqXqXuXrX0XyXrXuXwXrXiX8X2X1X,X:X*Xu.r.Y u + O > 9 x x x x x x x ",
"x x x x x x x l w > . X y J r.y.G.:X<X2X}.OX%X0XqX7XqXqXiXiXiXrXqXqXqXqXqXqXrXrXrXiXyXqXrXsXwX@XOX}.2X<X:Xu.u.e.J t X . , w z x x x x x x x ",
"x x x x x x z x v a 1       H 0.y.G.&X&XP.~.|.0XiXiXiXpXiXqXrXrXqXqXqXqXqXrXrXiX7XqXqXqXwXsX;X|.~.P.1X>XG.u. .H o     1 w x v v x x x x x x ",
"x x x x x x x z v b a 6 X   r H ..0.t.y.g.J.)..X;XrXsXsXpXyXyXqXyXqXiXiXiXiXiXiXiXpXiXiXsX@XOX/.J.g.f.t.r...H t   . 3 a z v v x x x x x x x ",
"x x x x x z x x x v v l 6 X   - r y j Y r.f.N.R.+X@XrXwXyXqX0X0XeXrXeXeXeXeXeXeXqXrXtXtX@X[.~.n.f.0.J j y t k   X 6 z v x x x x x x x x x x ",
"z x x x x x x x x x v v l 8 #       o k J  .@.,.x.!.[.#X@X@X@X@X@X@X#X@X#X@X@X@X@X@X#X[.E.k.1.@...J r o       $ 8 a v v x z z v x x x x x x ",
"z x z x x x x x x x b x b v a &       o r t i s W 6.b.E.E.^._.^.^._.^._.^.^._._._._.W.v.6.W f i t r *     . : a z v x x x x x x x x x x x x ",
"x x x x x x x x x x x x x x x w 2 = X         . > F -.6.5.j.j.4.4.4.w.w.w.4.w.j.j.w.6.$.T > .         X 1 2 q z x m x x x v x v x x x x x x ",
"x x x x x x x x x x x x x x x x c 9 # . # $ = 7 : > l D A Z A Z A A A A A A A A A Z v x > : 1 = - # . # 6 z x x x x x z x b x b x x x x x x ",
"x x x x x x x x x x x x x m x z p $ . 7 I ) *.*.} s     .   . .   .   .     . . . . . . p ' >.*._ I 2   $ w c c x x v v v b x x x x x x x x ",
"x x x x x x x x x x x x x m w q % O + G 2.m.(.{.A./ & . . O # . # . O X O O . # . .   # / L.+X`.M.<.G O . $ 9 z v v v x x x x x x x x x x x ",
"x x x x x x x x v x v x c z 6 O O 8 I =.W. XuXaXXXq.W A T R R R R R R R W E R W W T A T 7.$XdXtX XM.<.T e O O 6 b b x x x x x x x x x x x x ",
"x x x x x x x x x x v z a 2 O . d _ k.E. X0XaXaX0X~.k.b.c.x.x.c.c.b.c.c.c.c.c.c.c.c.k.x.~.%XdXhX;X#XR.k.{ d . O 2 8 b x x x x x x x x x x x ",
"x x x x x x x x x v v c 9 O   . B <.E.[.;XiXiXXX(.).^._.`.`.'.'.`.`.'.'.'.'.'.`.'._._.^.^.+XXXqXiX;X[.E.<.B     O 9 x v x x x x x x x x x x ",
"x x x x x x x x x v v z 8 .     B <.E.[.tX-XK.1.<.v.^.|.#X@X@X@X@X@X;X@X%X@X@X@X@X#X[.^.V.<.1.K.rXtX#XW.=.B .   . 9 x x x x x x x x x x x x ",
"x x x x x x x x x x x x 8 O     m =.R.#XtXoXs.a B x.(.@XwXwXiXiXrXwXsXpXuXuXwXwXaXyX#X'.j.m w s.-XsX#XW.=.B     O 9 c v x x x x x x x x x x ",
"x x x x x x x x x x v z 6 O     B <.R.@XaXqXs.6 A m.@XrXwXiXqXiXaXaXdXdXaXaXaXaXyXyX%X%XM.V 0 s.7XaX#XR.<.B .   . 9 b v x x x x x x x x x x ",
"x x x x x x x x x x v x 9 $ .   M =.M.`.qXXXd.N ^ /.pXaXrXwXeX0X0X7X7X7X%X%X%X%XwXwXsXpX/.^ M d.XX0X[.M.=.N . . $ 9 x v v x x x x x x x x x ",
"x x x x x x x x x x v x l q $ . q R *.1.s.p./ = o.].aXaXrX0X.X(.B.l.p.p.l.Z.`..X%XqXaXaX/.' 3 / p.s.1.*.I q . $ w l x x x x v b x x x x x x ",
"x x x x x x x x x x x x x x a , O O = 3 5 5   i +./.sXaXwX@X|.R.3.N # # m ;.B.'.;XiXaXaX].+.u   = 5 3 = O O 1 a v v x x x x x x x x x x x x ",
"x x x x x x x x x x x x v v m w 2 . .         u +.{.dXdXrXeX@X`.1.f     q -.W.'.@XiXgXaX{.+.u           O 4 w v v x x x x x x x x x x x x x ",
"x x x x x x x x x x x x x x x x z 0 O .       0 +./.qXaXpXpXsXoXl.V   . z ;.W.|.@XiXdXaX/.+.u     . . O 9 z x n v x x x x x x x x x x x x x ",
"x x x x x x x x x x x x x x x m x l q = O     - P 7.K.XXpXfXgXiXn.K   . d 3.!. XwXpXXXK.p.P -     . 1 8 w x v x x x x x x x x x x x x x x x ",
"x x x x x x x x x x x x x x x x x x x w , .       X P n.7XgXgX7Xn.K     c 3.R. XiX7XN.P . .     . : a c v x x x x x x x x x x x x x x x x x ",
"x x x x x x x x x x x x x x x x x x x x q 2 & X     . @.N././.L.,.s     e ) q.m.~.A.>.      X & 2 q z v x x x x x x x x x x x x x x x x x x ",
"x x x x x x x x x x x x x x x x x x x x x z 9 +       g L / / I g & . . % p V L P P h     . % 4 z v c v x x x x x x x x x x x x x x x x x x ",
"x x x x x x x x x x x x x x x x x x x x v x w 2 & $             . 1 6 8 1 . .           $ = 6 a c v v x x x x b x x x x x x x x x x x x x x ",
"x x x x x x x x x x x x x x x x x x x x x x x x p =             2 a c c a 2 .           1 a z z x x x x x v x x x x x x x x x x x x x x x x ",
"x x x x x x x x x x x x x x x x x x x x x x m m l 7 .         . 8 v v n z q O         . 1 a m m x x x x b x x x x x x x x x x x x x x x x x "
};
