/* XPM */
static char *dHJhcC4_[] = {
/* columns rows colors chars-per-pixel */
"70 70 226 2 ",
"   c #050616",
".  c #0A0716",
"X  c #060A16",
"o  c #0B0A15",
"O  c #060618",
"+  c #0A071B",
"@  c #060A1B",
"#  c #0B0A1C",
"$  c #130C15",
"%  c #140D1B",
"&  c #1B0F1B",
"*  c #190D15",
"=  c #03121E",
"-  c #0D141E",
";  c #14111C",
":  c #1C131B",
">  c #191116",
",  c #22141C",
"<  c #22181E",
"1  c #2C1B1E",
"2  c #28161C",
"3  c #341C1E",
"4  c #3B1D1D",
"5  c #3B221D",
"6  c #090C20",
"7  c #051522",
"8  c #0B1424",
"9  c #051825",
"0  c #0A1A27",
"q  c #0A1A29",
"w  c #071828",
"e  c #1D1621",
"r  c #151423",
"t  c #190F20",
"y  c #241622",
"u  c #241A23",
"i  c #2B1B23",
"p  c #2B1C28",
"a  c #331E24",
"s  c #3B1E23",
"d  c #381E29",
"f  c #0C242D",
"g  c #022127",
"h  c #14292F",
"j  c #0C2431",
"k  c #0D2B34",
"l  c #0E2F3B",
"z  c #122633",
"x  c #132B35",
"c  c #1B2D35",
"v  c #142C39",
"b  c #192D39",
"n  c #0D343E",
"m  c #0B383D",
"M  c #163235",
"N  c #1C3335",
"B  c #13343C",
"V  c #1B353C",
"C  c #15393D",
"Z  c #1D393D",
"A  c #2B2D2D",
"S  c #262C2E",
"D  c #332223",
"F  c #3C2224",
"G  c #3C242A",
"H  c #34242A",
"J  c #25312F",
"K  c #33322E",
"L  c #242E33",
"P  c #2C2C33",
"I  c #253435",
"U  c #2A3435",
"Y  c #223936",
"T  c #23373B",
"R  c #2B363A",
"E  c #233A3D",
"W  c #2C3C3C",
"Q  c #2B3936",
"!  c #343332",
"~  c #323D3E",
"^  c #383737",
"/  c #3D2731",
"(  c #451E1C",
")  c #46221C",
"_  c #432325",
"`  c #4A2525",
"'  c #4C2925",
"]  c #43252A",
"[  c #4A2629",
"{  c #442A2C",
"}  c #4B2A2B",
"|  c #452925",
" . c #522D2C",
".. c #502826",
"X. c #55322D",
"o. c #59332E",
"O. c #4D2E31",
"+. c #472D32",
"@. c #532E31",
"#. c #4E3232",
"$. c #463B3A",
"%. c #543233",
"&. c #5A3534",
"*. c #5C3934",
"=. c #5A3639",
"-. c #5D3B3B",
";. c #543B3A",
":. c #623E3B",
">. c #623C37",
",. c #2E413E",
"<. c #31413E",
"1. c #46453F",
"2. c #4B453E",
"3. c #5C423F",
"4. c #63413C",
"5. c #69443E",
"6. c #6B483C",
"7. c #0C3542",
"8. c #0E3941",
"9. c #143642",
"0. c #1B3641",
"q. c #153A42",
"w. c #1D3B43",
"e. c #1E3D4A",
"r. c #233641",
"t. c #233C43",
"y. c #2A3D44",
"u. c #233E49",
"i. c #2C3E48",
"p. c #333E42",
"a. c #3C3E40",
"s. c #493E40",
"d. c #633E41",
"f. c #1C4145",
"g. c #254245",
"h. c #2B4145",
"j. c #25424A",
"k. c #2B444B",
"l. c #2D494C",
"z. c #344243",
"x. c #314944",
"c. c #33464C",
"v. c #3A464D",
"b. c #33494C",
"n. c #3A4B4E",
"m. c #3B4344",
"M. c #3B514E",
"N. c #2D4651",
"B. c #344B52",
"V. c #3C4C53",
"C. c #384A53",
"Z. c #3C5254",
"A. c #3D535A",
"S. c #365257",
"D. c #454643",
"F. c #4B4541",
"G. c #454843",
"H. c #4C4946",
"J. c #424D4E",
"K. c #4B4A4B",
"L. c #5C4D4B",
"P. c #574746",
"I. c #44514F",
"U. c #4F524E",
"Y. c #56514D",
"T. c #434E54",
"R. c #464F58",
"E. c #435355",
"W. c #4A5355",
"Q. c #435559",
"!. c #4A545B",
"~. c #45595D",
"^. c #4C5A5C",
"/. c #475957",
"(. c #5C5552",
"). c #52575D",
"_. c #525A5D",
"`. c #585959",
"'. c #514E51",
"]. c #634442",
"[. c #6B4641",
"{. c #654A45",
"}. c #6C4A45",
"|. c #634D4A",
" X c #6A4E4A",
".X c #714C45",
"XX c #734E49",
"oX c #6C524C",
"OX c #67514F",
"+X c #765147",
"@X c #74524C",
"#X c #7A564C",
"$X c #7A584D",
"%X c #72584E",
"&X c #6D5854",
"*X c #735552",
"=X c #7A5653",
"-X c #7A5851",
";X c #745852",
":X c #56615E",
">X c #4C5B62",
",X c #455C63",
"<X c #545D63",
"1X c #5A5D63",
"2X c #515761",
"3X c #556264",
"4X c #5A6265",
"5X c #5B636A",
"6X c #5D696D",
"7X c #57676B",
"8X c #5C6D72",
"9X c #62656A",
"0X c #646A6E",
"qX c #606766",
"wX c #646B71",
"eX c #6A6D72",
"rX c #6C7375",
"tX c #6D767B",
"yX c #677579",
"uX c #727B7D",
"iX c #70767A",
"pX c #687A83",
"aX c #747C84",
"sX c #78878A",
"dX c #778C91",
"fX c #7E9091",
/* pixels */
"Y E W W ^ ! Q R y.R r.T T Z V q.Z w.V r.E V V C V Z Z w.w.Z Z Z q.C Z C w.V V V w.V 0.0.w.Z Z Z w.w.E V f.Z ,.Z Z Z Y Y Q K Q Q Z E W ^ ^ #.",
"W W ,.W ! A A W y.L I E r.r.x x v V t.T c N E V V E M h E g.Z t.V V Z Z M M E E r.V V w.r.Z C B v V Y T E ,.C M N M N N J K K ~ E ,.W K K 2.",
"J.W.E.T.m.~ m.m.R.aXwX2XA.7XdXsXM Z b.,X6XwX3X<X6X6XsXdX8X>XE.Z.E.Z.c.c.Q.Q.Q.T.E.E.Z.b.l.l.g.V Z k.Z.V.b.Z.7XsXsXdXC N N Y ,.n.W.E.m.^ K K ",
"_.4X4X2Xv.y.v.W.5XsXsX0X7XyXyX8Xg.g.~.7XaXaXeX9XeXiXaXsXyX6X3X>X<X~.E.E.<X5X<X<X2X2X~.Q.Z.Z.k.Z w.S.^.^./.:XuXfXsXfXC M M Z x./.<X1X/.~ K <.",
"W._.<X2Xc.i.b./.3XrX0X4X3X6X7X~.x.E /.3XwXeX0X9X5X0XwXwX5X<X^.^.~.W.E.R.2X2X2X2X).!.E.Q.Z.S.l.Z r.B.W.W.E.^.rXrXtXyXg.C n q.g.A.^.).W.p.Q W ",
"T.E.R.V.u.i.b.Z.:X:X:X`.!._.^.Z.g.C b.Q.!.5X)./.R.W.R.W.T.V.n.M.n.v.C.C.v.v.v.C.T.V.v.B.S.A.l.w.w.l.W.T.I./.qX:X9X>Xj.8.m 8.f.b.Z.V.c.W W z.",
"c.b.B.N.e.w.k.Z./.:X`.W.W./.Q.S.C C g.b.b.Q.l.l.c.B.k.k.k.k.g.j.k.k.l.h.k.h.h.h.h.j.k.k.S.b.k.q.Z k.V.J.I.I.:X`.`.!.j.8.8.8.q.g.l.k.h.y.p.z.",
"Z V V C e.w.k.n./.I.I.E.E./.M.g.,.C Y E t.h ,.,.T E E E r.Z ,.w.Z E t.y.r.E E Z Z w.E E M M v v V l.E.E.I.I.I.I./.Z.j.8.8.8.C Z f.w.g.y.m.D.",
"r.V w.j.k.u.c.b.x.x.x.x.x.b.x.E Y y.R U Q ^ Q J J U U U I U U U I S U U y.U U I L c L L J P R L I y.v.v.x.x.x.c.v.b.f.m C e.g.w.w.Z r.z.v.G.",
"t.w.h.C.A.,XQ.Y ,.Z ,.Y E E <.<.m.s.F.H.Y.Y.(.(.Y.H.F.F.F.F.F.F.H.Y.(.`.$.$.F.F.F.s.^ ! K 2.^ ^ P R I I W R R T T Z C m f.B.S.>XS.g.E h.G.H.",
"w.t.v.^.2X<XA.V M N Y Q R R ^ $.P.L.|.|.OX%X%XoX X X{.{.].{.{.{.{. X X{.[.].[.5.3.;.%.#.%.P.s.;.^ H L L U R R y.c b n m u.R.~.<XQ.h.Z x.G.H.",
"w.y.V.<X).R.l.,.Z h.m.F.L.'.L.OXOXoX}.+X+X$X#X+X#XXXXX.XXXXXXX.X+X+X+X#X.X.X.X+X5.:.-.;.-. XXX[.].L.OX(.Y.Y.'.K.K.p.E Z i.V.!.5XE.h.Y ,.m.H.",
"u.u.E._._.J.l.g.Y J.L. X*X*X&X&X-X-X-X#X$X#X#X#X-X#X#X#X-X#X#X#X$X#X#X$X#X+X#X6.6.4.4.].}.XX#X@X*X*X&X&X*X*X&XOXL.D.W t.l.C.).1XE.y.N ,.G.2.",
"u.y.E.:X`.T.l.w.T '.OX*X=X=X=X-X=X=X#X=X#X#X#X#X#X#X#X#X$X$X$X$X#X#X#X#X$X+X6.6.6.6..X[.XX@X#X#X*X#X;X%X-X=X*X*XOXP.,.Z i.v.!.5X~.W E <.D.2.",
"w.E :X6X`./.c.t.W `.&X*X=X XXXXX#X+XXXXX@X@X@X*X-X=XXX@X@X@X+X+X#X#X#X+X+X6.>.>.6.+X#X#X X#X#X.X#XXX.X-X.X.X+XoX*XL.p.u.i.v.!.1XE.y.Y ,.D.2.",
"w.Z 8XeX4X_.B.t.U K.|.[.[.:.:.4.[.5.>.].[.}.}.[.[.[.5.[.}.}.6.6.6.6.[.:.>.>.>.o.*.6.5.5.>.[.[.5..X[.:.[.>.4.3.4.4.P.p.r.i.V.R.2XT.E Z W D.2.",
"u.V uXuXeX3XA.V I A 3 4 ) X.%. .) X.o.*.:.d.@.` ( ` &.4.[.[.4.o.( ( ( .. .@... . .) ) `  .( ..>.:.>. .( o.X.X.) 5 F L r.i.v.R.!.b.t.T ~ D.F.",
"w.b sXsXrX3XS.g.U K | | [ [ ` ` ..' '  .-.:.=.} [ `  .&.>.4.3.o.` ` ..` ` [ ` ....' ' .... . .&.&. ..... .' | ' ' / R r.k.V.R.!.Z.E Y ~ D.F.",
"e.M fXsXiX3XS.k.I D.;.*.&. .} O.X.=.:.d.d.d.:.@. .[ } -.4.4.3.-.>.>.:.@.[ [ %.-.>.*.-.&.:.&.&.} [ o.>.:.:.-.3.*.3.#.W N k.V.T.^.~.Z Y ~ D.2.",
"u.V sXuXrX>XC.g.Q K.].5.5.&.%.=.*.d.-.].d.d.d.-.&. .} :.-.4.4.>.4.].d.=.[ } =.d.5.4.-.:.:.:.=.} @.&.:.d.4.4.4.4.6.2.p.b i.Z.W.<X~.E T <.D.2.",
"u.Z 3XeX4XW.B.y.R G.P.4.>.*.=.O.O.O.d.d.d.d.d.=.@.} } -.:.P.:.:.:.:.d.=.{ ] =.-.>.:.d.:.=.@.@.%.=.-.P.:.:.5.4.4.d.s.i.r.i.C.!.<X~.E Y ~ G.2.",
"u.t.>XqX1XR.l.j.U ~ ;.;.-.=.=.#.{ ] d.-.d.=.=.=.%.} } ;.d.-.-.:.:.*.=.#.] _ #.=.-.-.-.=.@.[ ] @.d.=.-.:.-.=.-.=.=.$.r.r.c.v.!.<XQ.t.T z.G.2.",
"t.V rXiX0X^.B.u.V S H { #.X.O.] _ ] }  .@.@.@.} } ] G { { O. .} X.X.%.{ 4 F { O. .%.@.O.[ s s O.O.O.@.@.%.@.#.+./ P L 0.k.v.W.<XA.y.I <.D.2.",
"u.V aXiXeX2XC.u.M - e 1 G G ] F 3 3 s ` _ [ [ ] | | F 1 5 _ ` } ` | ' G 1 3 F ] [ _ _ ] 4 s s _ ] ] ] [ } _ d a y t z 0.y.v.!.1X/.Q Y <.1.2.",
"u.0.yXrX9X).C.u.b = # e p d F G F F s s _ _ _ F _ G G 5 5 F _ _ _ _ F F 1 1 F _ _ _ F F 5 3 s _ _ _ _ _ _ d i y t 8 j e.i.v.!.1X~.E T z.D.2.",
"w.r.<X9X1XT.l.u.V = 6 ; e p G { { F s a d G G ] _ ] D D i F _ ` ] _ { G 1 3 F F _ F F 5 s F s G _ s ] ] ] d y & # 8 j 0.i.v.R.1X^.T Y z.G.2.",
"w.t.W.<X_.T.l.w.B 7 @ # % y H H F a i i a a D F F D D u 1 s _ s d d a i 1 i D a 3 1 1 i i a d d d d d a y i t + # 8 j 0.k.v.R.).E.E T ~ G.2.",
"w.g.E.^._.T.k.g.b = @ # . % & : i a p u & & 2 a D 5 2 : : i a a i , & * 1 1 a a , * , y p a d d i y & & & % + t # r j 0.u.B.E.W.B.E Y <.G.2.",
"f.h.M.^.^.T.k.w.b = @ # o o $ : u u p u > * : 2 1 2 < $ % , y 2 > * $ $ i S < : * % < y i i p i y % $ . . . + # # r j 9.k.B.V.Z.l.,.Z h.D.F.",
"w.t.n./.!.n.k.t.b @ @ - # # # o - ; u 2 < , : > < u y % ; : S D < > o $ D : > $ e t y u y t t & t + + . % # + # # 8 f w.j.B.Z.Z.l.E Z z.H.2.",
"w.Z b.Z.W.V.l.E c X - o # - # X o o : < i < % # ; e e o % e y y : > o o S > o o t y p y t % . . + + + + # # 6 6 6 r j 0.h.B.E.E.B.t.r.p.D.F.",
"w.g.x.E.Z.n.h.f.x = X # # # X X X o ; > > % $ # # ; r $ % $ r % ; o X o $ > X X + % t t t + . + % + 6 t # % 6 6 # 0 f B j.Z.Z.^.A.E r.p.D.2.",
"f.E b.W.W.V.l.w.b = @ # # + % o # # X o # o o X % # % # % o + o o X X O             .   o o # + + + + 6 # t 6 + 6 6 j v i.V.R.<X^.r.T p.H.2.",
"w.t.n.~.~.V.b.u.b 7 @ # # # + # % # 6 X # # # # # # # 6 # o + + o X O           O O + O X + # # # % + + # # + + + 8 j v i.T.W.1X~.y.T p.D.F.",
"Z g.Z.>X^.V.k.w.b = @ # # # + + # # # X o # # # # 6 # # # # O O O O   O O O O O   +   O # @ 6 # t # 6 # + # + 6 # 0 j w.i.v.W.1X~.y.T z.D.2.",
"Z g.Z.3X2XV.l.w.x = + + t # % # + + # @ # # o # 6 % # # # # O   O X O O O     O   +   O # # 6 6 6 # # # t + + + # q j w.c.v.W.4X~.i.T a.D.2.",
"w.f.E.<X>XT.N.e.v = @ @ + + # o + O + # o # # # + # X # # # O   6 O 6 O O   @   O O O O # 6 # 6 + + # # 6 t % 6 6 8 j 0.y.v.W.3XQ.h.E p.F.2.",
"f.Z Z.3X2XT.k.w.M = = # + + # # @ + + + # @ # X o # o # # 6 O     O O O @   O   O O + + # # # # + 6 # # % 6 + + 6 8 z w.k.v./.:XQ.h.T z.G.2.",
"Z E E._.2XT.l.w.M = X # + % # # + O @ + o # # # # # # # 6 # O     O O O O O O O O O + 6 6 # + + 6 6 + # 6 % 6 + 6 8 j w.h.n.W.:XQ.h.Q <.G.2.",
"f.E E.<X).T.l.w.l 7 # X # # # X + + @ + # # o # @ # X # @ 6 O       O   O O O 6 O + 6 6 6 # 6 6 % + # # + # + + 6 8 z w.h.n./.3X/.h.Y z.2.2.",
"f.t.W.<X2XT.h.r.v = @ # 6 # # # X X # X # # # # # # + # # @ @ O O O O O +       .   + + # # # t + 6 6 % t + 6 + 6 8 j e.i.c.!.3X/.h.Y z.F.2.",
"f.t.R.1X).R.l.w.x 7 @ # + 6 # # X # + X # o # o # + 6 + + O   @   O O O   + +   + + + + 6 # 6 # + + + 6 6 6 % + 6 8 j 0.i.B.E.3XE.g.Y z.2.2.",
"Z t.E.1X).T.l.w.x = # # # 6 + + # # o # # # # X # # + 6     @   O + O O   .   + O O + # # # # # % 6 6 % 6 + 6 + 6 8 z 0.i.b.~.3XQ.h.T z.1.2.",
"f.t.W.<X).V.l.t.b 7 6 + # # + # + X + X # o # # + # # +   @     O O O O   +     + + + # # # # # + 6 + 6 t + 6 6 + 6 j r.i.b.~.3XE.y.T ~ 1.2.",
"Z w.C.2X).E.b.t.b = # # # # # o # o X # X # # # @ 6 + # @ O @ O O +   +   + +   + X # # 6 # + 6 + # % 6 6 + 6 % # 8 f 0.k.b.!.3X/.g.Y z.2.2.",
"Z Z B.W.2X!.B.u.v 7 # # 6 # # # # # # # # # o # # # + # @ @ O O O O   +         + # + 6 # # 6 + 6 # 6 + + % + 6 6 8 j 0.i.v./.3XZ.h.E z.F.2.",
"w.Z c.Q.<X!.C.h.b @ 6 + # + # # # X o # o # # # # + 6 @ @ O O O O       .   + + + + # # 6 6 + % t + % 6 + + 6 O + 8 j 0.k.v.~.3XZ.h.E z.F.2.",
"Z E k.A.2X^.C.i.b 6 + + + t # o # # # # @ # o # # + + + @ @ @ O   + +   + + + + # # # # # # # 6 6 6 + + 6 6 + 6 6 8 j 0.h.b.T.~.M.y.Y z.F.2.",
"f.E b.^.2X!.C.u.b 6 @ @ # # # # # o # X # # # # X # # # @   O O O O + + + + + @ # 6 # # 6 # 6 + 6 + % 6 + + + 6 6 6 z 0.i.C.R.V.c.T T z.F.F.",
"Z E V.>X2XR.N.u.x 7 @ # # $ $ # # X # # # o # # # # # # 6 O @   + o O O @ # + + # # # # % # # 6 + 6 6 + + 6 t 6 6 8 q z u.R.R.2X~.t.T ~ H.2.",
"t.r.Q.<X,XC.j.w.l 7 O # # # # o # # # o # - o # 6 # # # @ O @ O O + O + + + @ + 6 t # # + 6 % + # # + + 6 + + + 6 8 j 7.u.Q.!.<X^.E Y z.F.2.",
"Z r.v.Q.V.k.w.w.z 7 @ @ % $ o # # o # # # X X X + # # + @   @   + O + O + @ + # + 6 # + 6 + 6 # # # + 6 % 6 6 + 6 8 j v i.A.^.<X~.y.Y z.F.2.",
"E r.b.V.l.w.9.C k 9 - # # # o # # # # # X # o # + # + # @ + 6 O X + # O + + + # 6 # # # % + 6 # # # # # # 6 6 6 @ 8 f w.k.c.W.1XQ.t.E z.D.2.",
"Z Z c.B.j.w.7.9.k 9 @ # # % # o X o o # # # # # + # + @ + @ O @ # + + # + + + # + # # # 6 + + 6 6 # 6 + 6 t % 6 # 9 f C i.v.^.1XA.,.Y <.D.2.",
"E E k.V.k.9.7.v k 9 @ # # % % X # = # @ # o # X # + + + @ @ @ + @ # # # + + + 6 # 6 # 6 6 + + 6 # t 6 + + 6 6 6 @ 8 f Z k.v.R.<XZ.h.Y ,.D.F.",
"Z E b.Z.l.t.0.9.z 9 # # # # # # # o # o # # # # # # @ + @ + O 6 + # + # + + + 6 t # # # + 6 % + # 6 + 6 6 % + + @ 8 f Z h.v.R.2XZ.t.Y z.D.F.",
"Z E V.~.R.N.u.0.x = # # # o # # # # # @ # @ @ # + 6 + + # + 6 # 6 # + + + # + + # % 6 6 + 6 + 6 6 t # # % # + # @ 8 f Z ,.m.E.W.b.E Z ,.G.1.",
"E E Z.>X>XC.i.r.x - @ # - # # # # # # @ # @ # @ + + + + # # + # 6 % 6 % + + + + # # # % # + + 6 6 6 6 # 6 + % # @ 8 f V g.b.V.Z.l.Z N ,.G.1.",
"Z E T.<X2XC.i.u.z = X # # X - # # + # # # X # # + % + 6 + % # + + % 6 + # + + # # # # # # 6 + % 6 # # 6 + # o # # 8 f V h.b.V.Z.l.Z Z ,.G.1.",
"Z t.Z.<XW.N.u.r.c = X # # - # # X + # # # # # # + 6 % + + 6 # o # 6 + 6 # # # # # # # # # t % 6 6 # # # # # + # # 8 f V y.b.Z.Z.l.Z Y W G.1.",
"Z E b.Q.S.u.w.C x 9 = # # X # # @ X X # @ @ @ 6 + # # # # # # # # # # o # # X # X # # # # # + 6 6 6 + + t 6 % + X 8 f w.j.c.Z.S.l.Z Y W D.1.",
"Z Z l.C.j.w.B 9.k 9 @ @ = - - = - # 8 # 6 6 6 @ 6 # # = @ # = @ - 6 # # 6 # @ 8 8 # @ 8 6 # # 6 6 6 6 6 6 # + 6 X 7 f w.j.b.V.S.l.V Z p.D.1.",
"w.C j.j.e.7.n n k f w q q 0 9 8 r w q w w q w q w w w q w w w 0 w w q q q q w q 0 0 0 q q q q q q q q 8 q q q w w q k q.u.u.N.k.g.C V p.D.1.",
"Z C 9.q.9.n n n M v v z x z x x f z z z k l v x x x k x k z z k v z z h z x z x z z x z z x z z z j v v z z z z x B k n B 9.0.w.V C Y W D.2.",
"g.w.Z w.B B n 9 0.0.r.r.r.r.V c i.y.r.u.0.r.w.w.0.r.w.u.j.w.u.r.w.0.u.i.r.i.i.t.y.r.r.i.E t.E Y i.t.Z w.i.E u.r.V Z f.C f.C C C t.t.,.,.<.m.",
"g.b.~.,Xl.B j.dXpX>X>XpXpX7X2X2XR.V.v.c.B.l.N.l.B.B.N.A.A.B.N.N.S.V.V.Q.Q.Q.A.W.Q.W.^.V.T.b.b.Z.Z.n.b.l.k.c.c.l.b.b.l.f.f.C w.b.b.Z.M.<.~ ^ ",
"<././.^.b.Z j.sXyX<X5XtXpXwX1X1X2X!.V.B.B.B.B.b.B.C.B.,X,XC.B.c.V.W.~.^.>X^._._._._._.^./.I.I.~.~.E.n.M.B.v.B.C.T.E.b.k.f.V t.M././.Q.,.U ~ ",
"<.M.Q.Z.k.V M C c.T.^.3X5X1X2XR.!.T.l.r.t.t.w.w.w.j.w.w.u.h.r.r.y.c.J.E./.W.W.I.W.I.W.W.E.I.J.I.I.x.E r.r.u.u.i.Q.E.l.w.Z C g.l.Z.E.M.,.J ^ ",
"h.c.N.N.e.9.l B V B.V.>XE.V.v.c.b.i.0.B C B B n n n B B 9.9.V b 0.t.h.b.x.c.x.c.x.z.m.v.c.c.c.c.k.u.B B 9.7.v w.C.C.e.9.7.7.f.j.l.b.m.U P ^ ",
"R t.i.u.q.9.7.9.M g.t.h.k.h.y.t.i.u.9.l 7.B n n n n 7.n n B 9.v V Z t.y.y.y.y.y.y.y.y.y.y.i.y.t.r.0.v l 9.7.7.e.N.N.e.9.7.7.q.f.u.i.y.U K ^ "
};
