/* XPM */
static char *_79e79e3619a4c72df59681514b9f253VT7rqDsJL9l7AguT[] = {
/* columns rows colors chars-per-pixel */
"70 70 147 2 ",
"   c #302624",
".  c #312D26",
"X  c #382C27",
"o  c #342D2B",
"O  c #392E2C",
"+  c #373026",
"@  c #35322D",
"#  c #3B332D",
"$  c #382F30",
"%  c #353432",
"&  c #3C3532",
"*  c #3E3935",
"=  c #3C3739",
"-  c #3E3B39",
";  c #42352D",
":  c #42382F",
">  c #423632",
",  c #493735",
"<  c #443B36",
"1  c #493B37",
"2  c #42363A",
"3  c #453C39",
"4  c #4A3D3A",
"5  c #513F3D",
"6  c #444037",
"7  c #494137",
"8  c #45403A",
"9  c #4C413D",
"0  c #51443E",
"q  c #52483F",
"w  c #4E4341",
"e  c #4F4840",
"r  c #534543",
"t  c #584644",
"y  c #554945",
"u  c #594B46",
"i  c #564B48",
"p  c #5B4D4A",
"a  c #5E514D",
"s  c #5E5351",
"d  c #624F4B",
"f  c #64524E",
"g  c #68534F",
"h  c #655451",
"j  c #685453",
"k  c #685652",
"l  c #695753",
"z  c #6A5753",
"x  c #695551",
"c  c #685654",
"v  c #695757",
"b  c #6B5756",
"n  c #695652",
"m  c #615853",
"M  c #675851",
"N  c #645953",
"B  c #675853",
"V  c #635854",
"C  c #665855",
"Z  c #665954",
"A  c #695851",
"S  c #6B5852",
"D  c #685954",
"F  c #6A5854",
"G  c #6B5854",
"H  c #6B5955",
"J  c #685B55",
"K  c #6C5857",
"L  c #6C5A56",
"P  c #6D5A56",
"I  c #6D5B57",
"U  c #6E5B57",
"Y  c #6B5C55",
"T  c #6B5C57",
"R  c #6D5C55",
"E  c #6E5D56",
"W  c #6F5E57",
"Q  c #6B5A55",
"!  c #6A5B58",
"~  c #6C5A58",
"^  c #6D5B59",
"/  c #6E5A59",
"(  c #6F5B5A",
")  c #6B5D5A",
"_  c #6E5C58",
"`  c #6F5D59",
"'  c #6C5F59",
"]  c #6C5D5A",
"[  c #6E5C5A",
"{  c #6C5E5B",
"}  c #6D5C59",
"|  c #705D57",
" . c #705D59",
".. c #705C5B",
"X. c #705E5A",
"o. c #715F5B",
"O. c #705E5C",
"+. c #725E5D",
"@. c #745F5C",
"#. c #715E5A",
"$. c #6E615B",
"%. c #72605C",
"&. c #73605C",
"*. c #73615D",
"=. c #72635E",
"-. c #74615D",
";. c #74605F",
":. c #76615E",
">. c #75625E",
",. c #75635F",
"<. c #76635F",
"1. c #73645F",
"2. c #73625D",
"3. c #78655F",
"4. c #6E6560",
"5. c #756160",
"6. c #766261",
"7. c #736660",
"8. c #746560",
"9. c #766460",
"0. c #776460",
"q. c #776561",
"w. c #756661",
"e. c #766462",
"r. c #776563",
"t. c #756561",
"y. c #786561",
"u. c #786760",
"i. c #796662",
"p. c #7A6763",
"a. c #796765",
"s. c #786662",
"d. c #776966",
"f. c #766D66",
"g. c #776865",
"h. c #796A65",
"j. c #7A6866",
"k. c #796A67",
"l. c #7A6B66",
"z. c #7C6B64",
"x. c #7D6A66",
"c. c #7A6A65",
"v. c #7A6B68",
"b. c #7C6D6B",
"n. c #806866",
"m. c #806C6B",
"M. c #817674",
/* pixels */
"< 4 y p u p f f f f f g f f f f f f g f f f f f d d z f f j G G F f V s y 8 * 6 6 2 3 3 3 , r h { ^ j d f f d d f A G X.G z d f V f f f f f ",
"< r d V p h p f f f f f f f f f f f f f f h f d f f f f f f f d B =.c.d.a 8 > 6 8 < 3 3 3 3 t ` r.;.b h d d f d f ` 6.y.=.h f f f f f f a f ",
"= r h h h p d d h f f f f g f f f h f f f f f f f d f f f d d p f <.z.d.a 3 < < 6 6 2 < 1 2 r ^ j.6.K d f f d f h ` >.8.X.f f f f g g g f f ",
"w t f h d h j f f d g f f f f h f f f f f f h f f d f f g d f f z G ^ ` u 3 * < < 3 < 3 4 3 r F a.6.| | A f f f f z E X.F f f f f f d f g J ",
"p a f f f f f g f f f g f f g f f f g f f f f d f f f f f f f f f N f Z y 8 < < 3 3 < 4 3 < r ^ r.<.X.<.&.E h f f f h f h f f f f f d z =.1.",
"c h d d d f h f f f f f f h h f f f f f f f f d f f f f f f d h a a a f y 1 3 1 1 , 4 4 4 , 0 ^ 6.@.<.y.y.+.z f f f f f f f f f f f d G 1.f.",
"c h f f f h d f d d f f f f h f f f f f f h f f f f f f f f d f f f f s y 3 < < < > > 3 3 , r ) 6.=.<.<.<.X.z d f f f f d f f f f f f B $.$.",
"h c K ..K j f d d g f f f f f f f j f f f f z f f f d f f f d f f J $.J y < & # # # > # < 3 t K =.<.| z g A f f d f f f d f d d h ` ` V e q ",
"h c X.>.=.M a a d f f f f f f f d g f h f f j d f f d f f f f d f +.z.c.i # . @ @ @ @ < < 4 t ^ 3.3.W f d f d f z d f f j f d f Y 3.f.M 7 # ",
"h F X.3.2.M d a f f f M M f f f g f f f f f f f f f f f f f f d B %.c.d.u # . @ % @ @ * 2 3 t ^ 3.3.W f d f d d f f f f d f f f $.3.z.N 7 6 ",
"h h R $.$.f f f f f f f f f M f h f f f f f d f f h f d f z z z h h Z V y & # & % * * * & > r ` $.3.E f d f f M f g g d f A z B g f J u 6 : ",
"h h f A g f f d f f f f f f f f f f f g h f g f f f f f f z X.<.A r 3 1 1 6 6 * < - 6 * # o , +.3.3.A a f f g d f g d g z &.&.$.d 1 9 7 < * ",
"f d d p d f a f d f g f M d f f f h f f f f f g f f f z h J 8.y.J q + : 1 7 7 3 * 8 * * @   3 d.b.z.X.p d d d d f f f f f >.b.7.f ; : 3 < 6 ",
"c f d d f f g f f f f f d M f f f f f f f f f f f f d f f F y.8.z q ; : 3 3 < 3 6 < 8 * # o 3 F %.E G g f f g d f g f f g J $.$.u : : 1 8 - ",
"h h h d f g f f f g f f f f f f f f f f f f f d f f d d f B 7.>.J q ; 6 < < : 7 8 8 6 * * & 3 r 4 5 f 6.$.R g d f S $.| J q y y 0 : : < 6 6 ",
"c f f f f f f d d g f f g f f f f g f h f f f f f f f f f A 8.u.$.q ; : 1 < 7 3 3 3 < 8 8 3 2 # X X u b.z.2.M d g &.3.z.=.< : : < < < * * - ",
"f f f d f h d d f j d f f f f f j f f h f f j f f f f d f F 1.f.$.y # , 1 1 3 3 3 3 3 3 < 1 2 o X X p M.b.r.v s h 4.g.v.5.3 & < < 8 3 < 3 - ",
"h f f d d f h d j f f f f f f h f f f f f f g d f f G A Z B a f u 7 : < 3 < 3 3 4 4 < 3 2 3 3 < < & w s i p i w i a a c s 2 < < < 8 3 3 8 * ",
"h d h f f f f f f f f f f f f f f f f f f f d f f z X.=.=.a 7 1 7 6 3 3 < < 4 3 4 4 4 3 < 3 3 1 < < < = & < 4 1 4 4 9 4 9 2 3 3 < 6 2 3 8 - ",
"j d h f f h f f f f f f g f f f f f f f f g f f f f X.y.=.f ; & : < 3 1 < 1 9 3 2 2 1 , < 3 3 8 2 3 = o o % & 3 2 3 2 3 3 4 3 3 6 * < < 3 8 ",
"f d f g f f f f f f j f f f j f f f f f f f f d f z X.y.>.N > > 3 < < 3 3 6 1 1 7 3 3 3 1 6 1 1 < < * & # & 2 3 3 2 2 4 3 , 3 3 * 6 * * 8 2 ",
"j j f d f f f f f f f f j f f f f f f f d f f f f g X.y.>.f , > < 3 3 3 3 1 3 6 3 3 3 1 1 < 3 6 3 < < 2 6 # & & & = 3 3 3 < 3 3 < < 8 8 * 3 ",
"j d f f f f j f f f f f f f f f f j f f f f f g f z +.c.f.B > , 6 1 < 7 6 3 3 6 < 3 3 3 3 < 3 < 3 8 3 6 6 2 # O O 2 3 4 3 < 3 3 < 8 8 8 8 4 ",
"j d g d d f d j f f f f j f f f f f f d f f f f h f ` 8.8.V < < 1 < 3 3 1 < < 1 < < < 3 3 7 < < < < 6 8 8 < % # # * 8 3 4 3 3 3 3 3 3 3 3 3 ",
"j d d j f f f j f f f f j f f f f f f f f f f f f f a h V p < < 3 6 1 6 1 3 8 3 < < 3 1 6 1 3 3 < 3 6 3 8 3 2 * 2 * > 3 2 4 3 3 3 2 3 = 2 8 ",
"j s d d d f d f f f f f f f f f f f f f f f d d f p r 4 1 7 > 1 1 3 < 3 6 1 1 3 3 3 < < 3 6 3 7 3 < < 3 3 3 3 3 < & O % 2 3 3 3 4 2 < < 4 4 ",
"j d j d f f f d f f f j f f f f f f f f f f f f h p 4 & > 8 3 3 < < < 3 3 3 3 3 1 3 < < 3 < 1 3 < < 3 3 3 3 3 3 < & % $ & 2 8 4 3 4 < 3 3 4 ",
"j j d f d f f f f d f f f f f f g f f f f f h s a p 4 < 3 7 3 < < < 6 6 6 3 7 6 6 6 1 3 3 < 3 < 3 < 3 3 3 3 3 3 3 < & & & - - 3 3 3 2 3 - < ",
"j d d d d j f f f f f f d f f f f f f f f f d d a p 9 3 3 8 1 < < < 3 6 3 6 3 3 6 < 6 < < < 3 < 7 3 1 1 1 3 < 6 3 < < 2 < = = & * 3 3 3 < > ",
"s j j d d d d f d f f d f f f f f f f f f f d s s p 8 < * < 3 2 6 3 3 3 6 3 6 3 < < 3 < 1 < 3 7 3 3 1 3 1 6 6 3 6 < 8 6 < & O # = 3 3 - $ & ",
"j d d d d d f f f d f j j f f d f f f f f f d s h p w < < 3 3 3 3 3 3 < 3 < < 3 < 3 6 < 3 < 3 < < < 6 3 3 3 3 3 < 3 3 6 < * # % * - w 2 % O ",
"s d d j j d f f f f f f f f f f f f f f f f j v J V w < < 2 3 3 1 1 7 < < 6 < < < 3 1 < 3 < < < 3 3 < 3 < < 3 < 3 3 < < < 2 : & - % = & & % ",
"h d f f f d d f f f f f f f f f f f f f f f c =.8.J 9 < 3 3 1 3 3 1 3 < 6 < 6 < < < 1 3 < < 3 3 < < 3 < < 3 1 1 6 3 6 6 3 3 < < * @ % @ % O ",
"h f f f p f f f f f f f f f f f g f d f f f b 6.c.%.r > > 3 1 < 1 3 3 3 < 3 3 < < 3 1 3 3 7 1 3 3 7 3 3 3 < < 6 3 1 7 < 3 6 6 < % @ o o o $ ",
"c f f f f g z z f f f f f f f f f f d f f d x <.y.` q < : 6 < 7 3 1 6 3 6 < < < < < 3 6 3 1 6 3 3 6 < 1 7 3 3 3 3 1 3 < 3 3 6 6 * * @ # % & ",
"f d f f h G X.` A g f g f f f f f f f f f f z 6.7.` q > , 7 < 1 1 3 1 3 < < 6 3 3 < 1 1 3 3 1 6 1 1 3 6 < < 3 1 3 6 3 3 3 3 1 8 - 3 3 2 < < ",
"d d f f h X.y.<.X.z f f f f f f f d f d d f G <.z.$.q < > 3 < 6 3 3 1 < 6 < 6 3 < < 1 < 1 6 3 3 6 1 3 3 3 3 3 < 1 3 3 3 < < 1 3 6 8 3 3 3 3 ",
"f f d f z X.<.<.G f d f f f g f f f f f f f ^ =.8.) y > 2 3 6 3 < 1 3 < 3 < < < < 3 3 3 6 1 3 7 1 8 7 1 3 < 3 3 3 3 3 7 3 < < < 3 3 < 3 3 3 ",
"f f f f f G X.G z d f f f f f f h d f f f f f a a a 9 3 * 3 1 3 1 1 6 3 6 3 3 < < 1 < < 3 3 < < 3 3 < < < 1 3 3 6 3 6 1 3 1 1 < 3 3 3 4 3 < ",
"M f f f f h h f f f f h f f f f f f f d f f r 3 < 4 3 3 < 3 4 3 6 1 3 < < < 6 < 3 < 1 < 3 < 3 < 3 3 < < < 6 6 7 7 1 < < 3 3 1 : < 3 3 2 3 < ",
"a f f f a a f f a d f f f f f f f f f a f s q : # < 3 1 3 3 1 3 7 3 3 6 6 3 3 6 3 < 3 < 3 1 3 3 < 3 6 3 8 3 8 3 7 3 3 < < < < < < 1 1 1 8 , ",
"f d f a a f f a f f f M f f f f h f f f N s y 6 : 6 6 6 < 3 1 1 3 3 6 3 3 6 6 3 < < 6 , 6 7 3 3 < 3 3 6 3 1 3 3 7 3 3 3 < < < 7 3 < 3 8 3 6 ",
"f M d f f f f M f f f f f f f g j f f J =.$.a 1 : < 6 : < < 1 3 3 6 3 3 6 3 3 6 < 3 < < < < 3 6 < 3 < > 3 3 3 3 < 2 < 6 3 3 < , < 3 3 3 3 < ",
"M d d g f f f f g f f g M a f f f f g X.3.>.a 7 : < < < 3 < 6 3 3 3 6 1 1 < < < < < 6 < < 3 1 1 < 3 < < > < 4 2 3 3 > 2 3 3 < < < < < < < 3 ",
"f f f g f f f g f f f f f f f g f f z X.7.>.a 6 : 3 < < 3 < < < 1 3 < < < 3 < < 3 < < 6 < < < < 3 < 3 3 3 2 4 3 2 8 4 4 3 3 1 3 < 3 , 3 3 2 ",
"M f f f f f f f g f f f f f g f d g g | y.<.f 1 ; 7 6 1 3 4 < 4 6 3 3 3 1 < < 3 3 6 3 < , 3 3 < 7 < 7 y r w 4 < 4 w r r w 3 3 4 9 r y 9 9 3 ",
"f f f d d d f f f f f f f f f f d g f $.3.1.s 7 : < < 6 3 3 4 < 3 < 1 7 6 3 6 3 1 3 3 < < 3 < < < > r a s s 5 2 3 i a h p 4 > 4 r s f p 9 3 ",
"f f f g d d M a f f f f d f f d d f A %.u.>.N 7 : : < 3 6 3 1 < 3 < 3 3 1 3 1 3 6 1 3 < 6 3 < < < 3 y N K a 9 , 2 i h c p 4 > 5 y V Z a 7 , ",
"M A f d d f f f f g d f g f d f A g A A A | u 9 : : : 6 3 3 1 < < < < 3 < < < 3 3 3 3 * < 3 < 9 9 9 w p d u q 4 0 u a f a 7 9 q y p p t 9 4 ",
"W R g f f z f f f f j h g f f R $.=.$.q 7 q 9 3 6 7 < < < 3 7 4 < < < 3 3 < 3 3 3 < < < < 3 9 y a a y 1 4 q u p u d f a a t u u t 4 4 r p d ",
"n.&.A d f f h f f h f h g g g $.3.z.%.q + : 1 < 3 7 7 6 3 3 1 3 < < 3 3 < < 2 3 < 3 3 3 3 3 w a Z Z y > ; 9 a B f h f f f h f f r > > w p v ",
"3.R M d d V f p f a f f f u d S =.>.E q ; , 6 6 8 3 1 < 3 3 7 3 < 3 7 1 1 1 4 4 < < 3 3 4 < w p h f y , , 9 u f f f f a a f h f t , > 4 p h ",
"u q q q q r y y r r w r q r r y i a i 4 @ * * 6 3 3 4 3 3 3 3 3 3 3 3 1 w t y y 7 3 < 3 4 < 4 w y r r y r t a f f z f h f f f f p r y t r r ",
"7 7 6 7 , < < 6 - 4 8 4 , , 4 < 3 3 8 & @ @ * 8 8 3 2 3 3 4 4 3 < 3 3 3 r s V p 9 6 < < 4 3 - < 3 3 y s f f f f f f f f f f f f h d V p 4 > ",
": < < < * * > * = 3 - < = - < < * = * % @ @ * * 3 3 4 3 4 , 3 3 3 3 3 4 i h Z a 9 < < 3 2 4 2 > 2 , 9 h N f f f f f p f f f f f h V ! p 4 > ",
"8 7 < 6 3 7 7 9 3 3 3 4 4 w 9 4 3 < - < % @ 2 < - 3 3 4 3 4 4 , 4 4 w w i i a i 9 < 3 3 3 3 3 4 9 9 u V f f f f j d f f f f f f p p p t 5 4 ",
"3 4 4 3 8 i a a y 3 4 4 i s a w 8 3 3 < < * * & & & < 4 2 4 3 4 9 p s p r w w 4 1 3 3 3 1 , 9 p p d d j f g f d d f f h f f f f t 1 4 r p p ",
"3 3 3 2 w p s Z p < > 4 p Z N u 7 # : < < 6 > # % & - 3 4 3 3 4 r p v s r 2 & - 3 3 , 3 3 3 9 f v j j d h g f d d f h f h f f a r 3 > 5 p V ",
"- 3 3 3 8 i s V y 4 , 4 u f a y 8 < , < : 6 # @ o % - 3 3 3 4 3 5 i h s q 3 2 3 1 3 3 1 < 2 5 p d j f f h f f f f h f a f a a p r 1 > 0 p h ",
"3 < 3 2 3 w r r r r r t r y r y y q 9 8 * 6 < & o @ & & & < 1 3 4 r r r 9 6 < 3 3 3 , 3 3 3 3 r w w i s d j h h z f a h p r r y t y t r t r ",
"3 - - - 3 3 < < 7 M h a r 3 3 w s V s e < < * @ o o % @ * * < 3 4 4 4 3 1 1 8 3 < 1 1 3 - 3 3 3 2 4 y V p h c f h V f V p > > 3 y h V p 1 > ",
"8 - < 3 3 3 2 3 y f B a 9 > > y a V s w < 2 * @ @ @ @ @ % * 2 8 2 4 2 2 8 3 3 3 3 1 3 3 3 4 3 4 4 2 i V s h f h f h a a a 3 # 3 y V V y 7 > ",
"* - < 3 3 8 < 3 7 u u y 7 > 3 9 i p i w < 3 * * & & % % & > & 2 3 - 2 < 4 4 3 3 3 3 3 3 4 3 3 2 4 4 9 p p p y p y y y p u w 9 9 y p u y w 9 ",
"* = - 3 * 8 3 6 8 9 9 9 4 < 3 7 9 9 9 3 3 < * * 6 2 & % % & % $ % = O = - 2 4 1 8 3 8 2 3 3 3 4 4 2 2 w 4 4 9 w 9 9 4 1 r u f a r 4 9 r p s ",
"X # < 3 3 8 8 8 - - 2 < 3 3 < < 2 < < - < 6 < 3 8 3 * % @ % $ % % $ $ O > < 4 3 3 3 3 3 4 4 4 < 2 3 3 3 < & - 2 * < 2 > 4 f v h t , > r d F ",
"# # < 3 * < 3 3 8 * 2 3 < 4 < < 2 3 < < 6 < 6 3 3 - * % % % % % % = % % & < 4 2 2 4 3 3 3 3 < < 4 2 3 2 < < 3 * 3 2 3 < 4 d s s t 2 < 9 p h ",
"# ; # > & & & = - % - * % = & = 8 2 2 3 3 3 8 8 8 = % % % % % % % % % & = = = 2 2 2 < 2 3 2 4 2 3 2 3 < 3 3 3 3 3 3 2 4 4 r r w 9 1 3 1 9 y ",
": # + + + @ @ @ @ @ % @ % % @ & 8 3 < 3 3 < 8 - 8 - % % % % % % % % % % % % $ = 2 8 4 4 3 4 4 4 4 3 3 3 4 3 3 3 4 2 8 3 3 4 3 - < 8 3 < 3 3 ",
": # + + X @ @ @ . @ @ @ @ + @ # - 3 3 < 2 3 3 - 6 < & # % % # % % % % % % $ $ & 2 w 3 3 4 3 2 8 3 2 3 3 2 3 3 2 4 3 3 4 - 3 - 3 < 8 < < < * ",
"; # @ + # # # # # @ @ & & # # ; - < - - * < < * * 2 & # % # # > > > ; & & & o & * - 8 2 < * < 3 3 3 3 3 4 3 3 4 * 3 * * 3 3 3 2 < < < 3 3 < "
};
